<?xml version="1.0" standalone="no"?>
<!DOCTYPE svg PUBLIC "-//W3C//DTD SVG 20010904//EN"
 "http://www.w3.org/TR/2001/REC-SVG-20010904/DTD/svg10.dtd">
<svg version="1.0" xmlns="http://www.w3.org/2000/svg"
 width="324.000000pt" height="324.000000pt" viewBox="0 0 324.000000 324.000000"
 preserveAspectRatio="xMidYMid meet">
<metadata>
Created by potrace 1.11, written by Peter Selinger 2001-2013
</metadata>
<g transform="translate(0.000000,324.000000) scale(0.100000,-0.100000)"
fill="#000000" stroke="none">
<path d="M1446 3233 c-17 -3 -30 -12 -33 -23 -3 -10 -11 -16 -18 -14 -15 6
-128 -71 -175 -120 -19 -20 -41 -36 -47 -36 -7 0 -19 -13 -28 -30 -9 -16 -22
-30 -29 -30 -8 0 -17 -13 -21 -30 -4 -16 -12 -30 -19 -30 -6 0 -13 -11 -14
-25 -1 -14 3 -25 8 -25 6 0 10 4 10 8 0 5 12 14 26 21 23 10 26 9 21 -4 -4 -8
-2 -15 3 -15 6 0 10 7 10 15 0 8 5 15 11 15 6 0 17 7 25 15 20 20 40 20 24 0
-7 -9 -10 -19 -6 -22 4 -4 11 -1 15 6 5 7 15 11 22 9 8 -3 1 -12 -19 -23 -18
-11 -32 -23 -32 -27 0 -4 -9 -8 -19 -8 -11 0 -22 -4 -26 -9 -3 -6 8 -5 27 1
18 5 44 12 58 14 l25 4 -25 -12 c-14 -7 -27 -15 -30 -18 -3 -3 -12 -6 -20 -7
-29 -3 -69 -13 -92 -22 -21 -9 -22 -10 -2 -10 11 -1 29 -8 40 -16 19 -14 19
-14 -3 -15 -12 0 -25 5 -28 10 -8 13 -25 13 -25 -1 0 -5 6 -7 13 -4 6 4 1 -3
-12 -14 -13 -12 -29 -21 -36 -21 -17 0 -47 -58 -34 -66 5 -3 9 -1 9 3 0 5 6
17 13 28 13 17 14 17 12 -3 0 -11 -8 -29 -16 -39 -13 -17 -13 -17 6 -3 11 8
28 25 38 38 10 12 25 22 33 22 8 0 27 8 41 18 17 10 24 12 19 4 -5 -8 -28 -22
-52 -32 -24 -11 -44 -23 -44 -27 0 -4 -16 -24 -35 -44 -19 -20 -31 -40 -27
-44 4 -5 1 -5 -6 0 -10 5 -11 10 -3 18 20 20 13 39 -7 20 -11 -10 -18 -20 -16
-23 1 -3 -6 -7 -17 -7 -17 -2 -16 3 11 35 17 20 26 38 20 40 -5 2 -3 10 5 19
8 8 15 19 15 25 0 11 -15 1 -57 -35 -12 -11 -26 -16 -32 -12 -6 3 -22 -6 -36
-21 l-26 -28 10 27 c6 15 7 27 1 27 -15 0 -51 -53 -45 -67 2 -8 1 -12 -4 -9
-10 7 -21 -27 -21 -66 0 -49 21 -76 33 -44 4 10 1 13 -9 9 -10 -4 -14 2 -13
23 1 18 3 22 6 11 6 -21 23 -12 23 12 0 10 7 24 15 31 8 7 13 15 11 19 -3 4 4
7 14 8 22 2 17 -22 -6 -31 -8 -3 -14 -15 -14 -26 0 -12 -5 -31 -11 -43 -9 -16
-9 -22 0 -25 6 -2 -3 -17 -20 -34 -25 -26 -33 -29 -41 -17 -7 10 -8 6 -4 -14
4 -17 0 -36 -10 -52 -12 -19 -15 -41 -12 -89 2 -36 0 -62 -4 -60 -4 3 -8 -10
-8 -28 0 -21 3 -28 9 -20 4 7 12 12 17 11 5 -1 17 1 27 6 25 11 31 1 12 -19
-9 -9 -14 -24 -12 -34 4 -16 5 -16 6 1 1 14 7 16 30 12 25 -4 32 -1 44 25 14
27 14 31 -1 40 -15 8 -15 11 -2 19 10 7 17 6 22 -2 6 -9 8 -9 8 1 0 6 5 12 11
12 17 0 69 40 69 53 0 8 -3 8 -11 0 -6 -6 -18 -9 -25 -6 -8 3 -14 1 -14 -5 0
-12 -61 -35 -69 -26 -3 3 2 11 11 18 15 11 14 14 -12 29 -40 24 -47 53 -18 77
13 10 25 14 26 9 2 -5 9 -6 15 -2 7 3 9 3 5 -2 -14 -15 11 -43 38 -42 29 0 94
23 94 33 0 3 -7 4 -15 0 -8 -3 -15 -1 -15 4 0 6 9 10 21 10 11 0 29 4 39 10
15 8 17 7 13 -12 -10 -37 20 -15 44 33 30 63 38 94 22 83 -7 -4 -3 6 9 23 26
36 29 51 7 33 -11 -9 -19 -10 -27 -2 -15 15 -1 32 28 32 13 0 24 5 24 11 0 6
-9 8 -20 4 -31 -10 -23 9 10 23 31 14 43 36 13 25 -11 -4 -14 -3 -9 5 4 7 11
12 17 12 5 0 23 15 40 33 27 29 30 30 24 8 -5 -16 -4 -21 4 -17 6 4 11 13 11
21 0 16 27 28 35 15 4 -6 12 -10 18 -10 9 0 9 2 0 8 -8 5 -3 14 17 27 17 11
30 23 30 28 0 4 6 7 13 7 7 0 26 13 42 30 15 16 32 27 36 24 5 -3 19 0 31 6
18 9 16 5 -7 -15 -20 -17 -23 -23 -9 -16 71 34 97 6 32 -35 -21 -13 -38 -29
-38 -34 0 -6 -7 -10 -15 -10 -8 0 -15 -4 -15 -10 0 -14 18 -13 76 5 38 12 55
25 76 55 31 44 29 48 -7 24 -14 -9 -25 -12 -25 -7 0 12 49 35 60 28 5 -3 11
-1 14 3 7 11 56 3 56 -9 0 -4 -13 -6 -29 -4 -18 2 -35 -2 -42 -11 -6 -8 -8
-14 -3 -14 4 0 0 -6 -10 -13 -17 -13 -33 -92 -16 -82 5 3 7 12 3 20 -3 8 0 15
6 15 7 0 11 6 9 14 -2 8 8 24 21 35 26 23 41 27 41 11 0 -5 -4 -10 -9 -10 -5
0 -17 -12 -26 -27 -16 -25 -14 -25 19 6 20 19 38 43 42 53 7 22 24 24 24 2 0
-8 5 -12 10 -9 6 3 10 1 10 -4 0 -6 -9 -11 -19 -11 -11 0 -23 -5 -27 -12 -4
-6 -3 -8 2 -5 5 3 10 -3 10 -13 0 -15 -3 -16 -13 -8 -15 12 -37 -10 -47 -45
-3 -14 0 -17 12 -13 13 5 12 3 -2 -9 -25 -19 -7 -20 20 0 12 8 24 11 28 8 3
-3 6 -2 6 4 0 6 8 14 18 17 38 13 -55 -54 -102 -74 -57 -23 -123 -97 -112
-126 7 -17 32 -13 29 5 -2 6 11 18 27 26 17 9 30 11 30 5 0 -5 -5 -10 -11 -10
-5 0 -7 -4 -4 -10 3 -6 -1 -7 -9 -4 -9 3 -16 2 -16 -3 0 -5 9 -9 20 -10 11 -1
20 1 20 5 0 4 11 8 25 8 14 1 23 -1 21 -5 -2 -3 7 -7 20 -7 53 -4 92 -15 114
-34 13 -11 34 -20 47 -20 20 0 67 -22 83 -40 9 -10 61 -30 56 -22 -3 5 -25 21
-50 37 -25 16 -44 31 -41 33 3 3 32 -14 66 -37 63 -44 92 -52 39 -11 -37 29
-40 47 -3 23 24 -16 26 -16 21 -1 -8 19 2 18 52 -4 44 -19 100 -66 100 -83 0
-8 6 -20 13 -27 7 -7 27 -34 45 -60 32 -46 33 -50 32 -150 -1 -57 -1 -119 -1
-138 0 -28 -2 -31 -8 -15 -8 19 -8 19 -15 -3 -6 -17 -12 -21 -24 -16 -10 5
-44 10 -77 11 -33 2 -90 6 -126 9 -61 6 -68 4 -73 -13 -4 -11 -18 -26 -31 -33
-15 -8 -29 -28 -35 -49 -14 -50 -13 -51 15 -51 14 0 25 5 25 11 0 5 5 7 10 4
6 -3 17 1 26 9 8 9 32 17 52 17 20 1 29 3 20 6 -10 2 -18 8 -18 13 0 14 60 22
116 15 49 -6 54 -9 54 -31 0 -14 8 -37 17 -52 l17 -27 -25 21 c-28 25 -63 44
-80 44 -7 0 -2 -8 9 -19 31 -27 27 -32 -10 -13 -43 21 -123 21 -172 -1 -30
-13 -37 -20 -28 -29 9 -9 17 -7 32 7 20 18 21 18 26 -2 6 -20 19 -25 94 -37
79 -12 109 -19 104 -27 -3 -5 6 -9 19 -9 25 0 46 29 28 39 -5 4 -4 14 4 25 8
10 18 15 24 12 6 -4 20 -2 31 4 17 9 20 8 20 -10 0 -22 -15 -27 -23 -7 -3 6
-6 2 -6 -10 -1 -13 4 -22 10 -20 20 4 26 -78 14 -190 -4 -35 -3 -63 2 -63 18
0 75 75 74 97 -4 78 0 105 18 119 14 11 22 64 23 152 0 51 0 52 31 52 27 0 29
2 15 13 -9 6 -18 21 -20 32 -2 11 -10 19 -16 18 -15 -4 -16 43 -2 52 6 3 10
13 10 21 0 8 -4 12 -10 9 -13 -8 -13 27 1 62 15 38 19 96 8 109 -5 6 -5 24 0
40 11 40 6 110 -9 106 -8 -2 -9 5 -4 20 24 76 64 286 68 361 6 95 -27 180
-103 266 -12 13 -22 28 -22 33 -3 16 -5 23 -23 63 -10 22 -20 55 -23 73 -6 37
-13 39 -36 14 -22 -24 -22 -43 1 -35 14 6 15 4 4 -9 -9 -11 -10 -18 -2 -23 5
-3 10 -22 10 -41 0 -24 4 -33 12 -28 8 5 9 0 6 -14 -4 -12 -3 -22 2 -22 9 0
20 -31 26 -75 2 -16 11 -35 20 -42 9 -7 18 -27 20 -45 2 -18 9 -47 14 -64 20
-61 20 -74 -1 -74 -10 0 -19 7 -19 15 0 17 -50 17 -63 0 -5 -5 -5 6 -1 25 6
34 6 35 -13 18 -11 -10 -24 -18 -30 -18 -6 0 -9 -9 -5 -22 4 -17 2 -20 -14
-16 -10 3 -25 7 -33 9 -8 2 -27 18 -43 34 -17 18 -26 23 -22 13 9 -27 -12 -22
-41 9 -21 23 -25 25 -25 10 0 -10 -4 -15 -10 -12 -6 3 -10 -4 -10 -17 -1 -16
-6 -8 -17 22 -8 24 -22 50 -31 56 -31 22 -199 35 -211 16 -14 -22 -79 -43 -66
-22 3 6 14 10 25 10 10 0 21 7 24 16 8 22 -1 31 -16 16 -7 -7 -22 -12 -34 -12
-19 0 -22 5 -21 35 2 36 2 36 40 30 23 -4 37 -3 37 4 0 18 -19 22 -66 15 -33
-5 -48 -12 -51 -25 -3 -10 -11 -15 -19 -12 -13 5 -12 8 2 24 15 17 16 19 0 25
-17 7 -46 -11 -46 -28 0 -6 7 -5 15 2 13 11 14 10 9 -4 -8 -21 -20 -20 -44 4
-11 11 -22 15 -25 10 -4 -6 0 -10 7 -11 7 0 3 -5 -9 -11 -26 -12 -38 -39 -23
-48 7 -4 3 -14 -9 -29 l-19 -22 4 41 c2 24 -1 40 -7 40 -7 0 -9 -10 -5 -25 6
-22 1 -27 -41 -49 -27 -13 -64 -26 -84 -29 -20 -2 -56 -16 -80 -30 -24 -14
-54 -28 -65 -31 -18 -6 -21 -3 -16 19 3 19 10 25 30 25 22 0 125 43 194 81 24
13 48 11 48 -3 0 -6 2 -9 5 -6 10 9 -7 38 -21 38 -8 0 -32 -9 -54 -20 -22 -11
-42 -20 -45 -20 -3 0 0 9 7 20 7 11 23 20 36 20 14 0 21 4 16 11 -4 7 0 9 14
5 11 -4 23 -2 27 4 3 5 1 10 -4 10 -6 0 -11 5 -11 10 0 6 7 10 15 10 8 0 15
-5 15 -12 0 -8 3 -9 10 -2 6 6 7 27 1 57 -5 26 -5 44 0 41 5 -3 9 -15 9 -27 0
-22 3 -22 71 -19 58 4 74 1 81 -11 9 -16 38 -13 38 5 0 5 -4 6 -10 3 -6 -3 -7
1 -4 9 4 9 0 18 -9 22 -9 3 -14 11 -11 18 7 17 -32 50 -51 42 -9 -3 -24 0 -35
6 -15 10 -23 9 -39 -6 -12 -11 -21 -15 -21 -11 0 5 -5 4 -12 -3 -19 -19 -30
-14 -18 7 14 28 12 36 -5 21 -8 -7 -15 -21 -15 -31 0 -11 -5 -19 -11 -19 -5 0
-7 5 -4 10 3 6 4 10 1 10 -7 0 -36 -56 -36 -67 1 -4 10 3 20 16 18 21 20 21
20 4 0 -19 -22 -43 -59 -63 -26 -13 -27 -27 -3 -32 10 -3 0 -10 -27 -18 -34
-11 -46 -11 -49 -2 -2 7 -12 12 -23 12 -17 0 -18 3 -9 21 7 11 14 18 17 16 5
-6 43 29 43 39 0 11 53 69 61 67 11 -4 59 56 59 73 0 9 5 12 10 9 6 -4 26 10
45 29 48 49 48 49 -19 39z m21 -175 c-3 -8 -6 -5 -6 6 -1 11 2 17 5 13 3 -3 4
-12 1 -19z m-260 -90 c-3 -8 -6 -5 -6 6 -1 11 2 17 5 13 3 -3 4 -12 1 -19z
m-27 -12 c0 -3 -4 -8 -10 -11 -5 -3 -10 -1 -10 4 0 6 5 11 10 11 6 0 10 -2 10
-4z m404 -81 c3 -8 1 -15 -4 -15 -6 0 -10 7 -10 15 0 8 2 15 4 15 2 0 6 -7 10
-15z m-301 -2 c-7 -2 -19 -2 -25 0 -7 3 -2 5 12 5 14 0 19 -2 13 -5z m577 -18
c0 -14 4 -17 33 -19 25 -2 127 -96 127 -117 0 -8 -6 -5 -14 7 -27 38 -155 93
-228 97 -14 1 -24 5 -21 9 2 5 -3 8 -12 8 -9 0 -13 5 -10 10 4 6 11 8 16 5 5
-4 17 -1 26 4 28 16 83 14 83 -4z m-445 -7 c-5 -13 -60 -54 -80 -60 -5 -2 -12
1 -15 6 -3 5 3 10 12 12 19 2 67 36 68 47 0 4 4 7 10 7 5 0 7 -6 5 -12z m530
-16 c-3 -3 -11 0 -18 7 -9 10 -8 11 6 5 10 -3 15 -9 12 -12z m-129 -100 c10
-35 14 -75 11 -102 -4 -36 -1 -49 16 -67 11 -13 16 -23 10 -23 -6 0 -16 7 -23
15 -10 12 -15 10 -37 -13 l-25 -27 16 28 c17 28 17 29 -20 70 -21 23 -42 45
-47 48 -5 3 -2 9 6 12 8 3 20 -6 30 -22 8 -14 24 -35 35 -44 19 -17 20 -17 26
8 7 29 -7 91 -26 118 -7 10 -31 24 -53 33 l-40 14 43 -3 c30 -2 41 1 38 10 -3
7 1 10 9 7 8 -3 22 -31 31 -62z m-510 46 c4 -7 3 -8 -5 -4 -7 4 -19 -2 -30
-15 -10 -13 -23 -19 -30 -15 -8 5 -5 13 11 26 27 22 44 25 54 8z m944 -48 c0
-5 -10 -10 -22 -9 -22 0 -22 1 -3 9 11 5 21 9 23 9 1 1 2 -3 2 -9z m71 -11
c18 -18 19 -25 10 -45 -6 -13 -17 -24 -26 -24 -8 0 -15 -5 -15 -11 0 -6 7 -9
15 -5 8 3 15 1 15 -4 0 -6 -5 -10 -12 -10 -6 0 -4 -6 6 -13 14 -10 16 -18 9
-31 -9 -16 -13 -13 -32 19 -11 20 -19 41 -16 46 4 5 1 9 -4 9 -6 0 -11 7 -11
15 0 8 -4 15 -10 15 -5 0 -10 5 -10 10 0 6 6 10 13 10 7 0 19 9 27 20 18 24
15 25 41 -1z m-1165 -8 c-10 -11 -15 -25 -10 -32 5 -8 3 -10 -6 -4 -13 8 -52
-31 -77 -78 -8 -16 -17 -26 -20 -23 -8 8 46 96 78 129 32 31 62 38 35 8z m48
4 c-4 -8 -8 -15 -10 -15 -2 0 -4 7 -4 15 0 8 4 15 10 15 5 0 7 -7 4 -15z m811
-85 c3 -4 -2 -7 -10 -6 -15 2 -55 40 -55 51 0 7 57 -32 65 -45z m71 9 c4 -8 1
-8 -14 0 -12 6 -24 16 -28 22 -4 8 -1 8 14 0 12 -6 24 -16 28 -22z m-1140 -77
c-18 -16 -18 -16 -6 6 6 13 14 21 18 18 3 -4 -2 -14 -12 -24z m-49 -2 c1 -11
-2 -22 -6 -24 -6 -4 -7 26 -2 42 3 8 7 -1 8 -18z m109 -18 c-16 -15 -25 -20
-21 -12 12 21 39 48 44 43 3 -2 -8 -16 -23 -31z m36 -14 c-7 -7 -12 -8 -12 -2
0 14 12 26 19 19 2 -3 -1 -11 -7 -17z m58 -6 c0 -5 -11 -14 -25 -20 -14 -6
-25 -18 -25 -27 0 -8 -4 -15 -10 -15 -22 0 -8 29 23 48 39 25 37 24 37 14z
m-123 -37 c-15 -16 -28 -10 -21 10 3 7 12 11 19 8 11 -4 12 -8 2 -18z m109
-11 c-11 -7 -22 -12 -25 -9 -2 3 4 12 15 19 10 8 21 12 24 9 3 -2 -4 -11 -14
-19z m-148 -49 c-28 -14 -35 -11 -19 9 7 8 19 12 27 9 12 -4 10 -8 -8 -18z
m-101 -197 c-3 -8 -6 -5 -6 6 -1 11 2 17 5 13 3 -3 4 -12 1 -19z m-70 -40 c-3
-8 -6 -5 -6 6 -1 11 2 17 5 13 3 -3 4 -12 1 -19z m1598 -218 c3 -5 -1 -10 -10
-10 -9 0 -13 5 -10 10 3 6 8 10 10 10 2 0 7 -4 10 -10z m-125 -126 c0 -8 -4
-12 -10 -9 -5 3 -10 10 -10 16 0 5 5 9 10 9 6 0 10 -7 10 -16z"/>
<path d="M2303 2680 c1 -11 5 -20 9 -20 4 0 8 9 8 20 0 11 -4 20 -9 20 -6 0
-9 -9 -8 -20z"/>
<path d="M1726 3233 c-9 -9 -7 -33 3 -33 12 0 22 28 12 34 -5 3 -11 3 -15 -1z"/>
<path d="M1794 3183 c-16 -3 -20 -9 -17 -24 6 -22 23 -25 41 -7 13 13 16 39 5
37 -5 -1 -18 -4 -29 -6z"/>
<path d="M113 3129 c-6 -6 -8 -19 -6 -30 5 -18 7 -17 24 5 11 13 19 27 19 30
0 10 -25 7 -37 -5z"/>
<path d="M2156 3132 c-3 -4 -1 -26 4 -47 7 -33 6 -41 -11 -53 -31 -22 -24 -44
14 -40 25 2 33 8 36 28 1 14 8 28 13 31 6 4 -1 23 -17 48 -30 44 -31 45 -39
33z"/>
<path d="M1120 3070 c0 -11 5 -20 10 -20 6 0 10 9 10 20 0 11 -4 20 -10 20 -5
0 -10 -9 -10 -20z"/>
<path d="M1933 3083 c-23 -9 -14 -20 12 -15 14 2 22 8 19 13 -6 10 -12 10 -31
2z"/>
<path d="M1094 3040 c-7 -42 -24 -55 -24 -19 0 18 -2 19 -15 9 -8 -7 -15 -23
-15 -36 0 -19 5 -24 26 -24 14 0 23 4 19 10 -3 6 0 10 7 10 8 0 14 16 15 45 3
56 -5 58 -13 5z"/>
<path d="M2316 3065 c4 -8 8 -15 10 -15 2 0 4 7 4 15 0 8 -4 15 -10 15 -5 0
-7 -7 -4 -15z"/>
<path d="M3115 3059 c-4 -6 -5 -12 -2 -15 2 -3 7 2 10 11 7 17 1 20 -8 4z"/>
<path d="M110 3043 c0 -12 -5 -25 -10 -28 -6 -4 -8 -11 -4 -16 3 -6 13 2 20
17 10 19 11 31 4 38 -7 7 -10 3 -10 -11z"/>
<path d="M390 3040 c0 -19 3 -21 12 -12 9 9 9 15 0 24 -9 9 -12 7 -12 -12z"/>
<path d="M1640 3047 c0 -8 7 -18 16 -21 11 -4 14 -1 12 11 -4 21 -28 30 -28
10z"/>
<path d="M1891 3037 c-15 -19 -2 -29 15 -12 8 7 14 16 14 19 0 11 -17 6 -29
-7z"/>
<path d="M2570 3012 c0 -5 7 -17 16 -28 14 -17 15 -17 10 -1 -3 10 -6 23 -6
28 0 5 -4 9 -10 9 -5 0 -10 -4 -10 -8z"/>
<path d="M2997 2994 c-11 -14 -16 -28 -12 -32 7 -7 45 34 45 49 0 16 -15 9
-33 -17z"/>
<path d="M270 2981 c0 -16 60 -53 76 -47 19 7 9 26 -14 26 -10 0 -28 7 -40 16
-12 8 -22 11 -22 5z"/>
<path d="M2243 2975 c-3 -9 -3 -18 -1 -21 3 -3 8 4 11 16 6 23 -1 27 -10 5z"/>
<path d="M2200 2959 c0 -20 -7 -21 -57 -2 -7 3 -13 0 -13 -5 0 -6 -8 -10 -17
-10 -29 1 -47 -6 -62 -25 -18 -26 -7 -32 22 -12 16 10 27 12 32 6 4 -7 15 -5
31 6 25 16 25 16 18 -12 -5 -18 -3 -26 4 -22 5 4 22 0 38 -8 25 -13 29 -12 40
4 14 19 8 64 -7 55 -5 -3 -9 6 -9 20 0 14 -4 26 -10 26 -5 0 -10 -9 -10 -21z"/>
<path d="M100 2952 c0 -10 -5 -23 -12 -30 -9 -9 -9 -12 0 -12 7 0 12 5 12 11
0 6 9 8 20 4 11 -3 20 -4 20 -1 0 3 -9 15 -20 26 -19 19 -20 19 -20 2z"/>
<path d="M2253 2907 c1 -19 5 -33 10 -30 4 2 7 -1 7 -6 0 -6 5 -11 11 -11 12
0 3 35 -17 64 -11 17 -13 15 -11 -17z"/>
<path d="M2756 2911 c-4 -6 -18 -11 -31 -11 -13 0 -27 -4 -30 -10 -3 -5 1 -10
9 -10 27 0 6 -27 -25 -34 -44 -8 -25 -27 24 -25 23 1 50 -1 60 -5 10 -5 17 -4
17 3 0 6 -6 11 -12 11 -7 0 -2 6 12 13 17 9 34 11 55 4 47 -14 78 -13 83 2 3
10 -2 11 -19 7 l-24 -7 24 21 c21 18 22 23 10 31 -21 13 -29 11 -23 -8 5 -17
5 -17 -6 0 -16 25 -80 24 -87 -3 -3 -11 -11 -20 -18 -20 -7 0 -16 -6 -18 -12
-4 -10 -6 -9 -6 1 -1 8 7 20 17 27 13 9 14 16 6 24 -8 8 -14 9 -18 1z"/>
<path d="M2495 2890 c3 -5 11 -10 16 -10 6 0 7 5 4 10 -3 6 -11 10 -16 10 -6
0 -7 -4 -4 -10z"/>
<path d="M152 2870 c0 -14 2 -19 5 -12 2 6 2 18 0 25 -3 6 -5 1 -5 -13z"/>
<path d="M861 2874 c0 -11 3 -14 6 -6 3 7 2 16 -1 19 -3 4 -6 -2 -5 -13z"/>
<path d="M222 2845 c0 -16 2 -22 5 -12 2 9 2 23 0 30 -3 6 -5 -1 -5 -18z"/>
<path d="M760 2847 c-22 -21 -26 -22 -36 -8 -10 13 -14 13 -28 2 -12 -10 -20
-11 -29 -3 -10 9 -17 6 -27 -8 -8 -11 -20 -20 -27 -20 -7 0 -13 -12 -13 -27 0
-21 -3 -24 -10 -13 -5 8 -12 11 -15 8 -12 -11 5 -28 28 -28 18 0 19 -2 7 -10
-13 -8 -13 -10 2 -10 9 0 30 17 47 37 17 21 31 32 31 25 0 -8 10 -11 28 -8 15
2 30 5 35 5 4 1 7 10 7 21 0 11 5 20 10 20 6 0 10 -4 10 -10 0 -5 5 -10 10
-10 7 0 7 6 0 20 -10 19 -6 24 13 21 5 -1 6 3 2 9 -9 15 -18 12 -45 -13z"/>
<path d="M580 2834 c0 -8 5 -12 10 -9 6 4 8 11 5 16 -9 14 -15 11 -15 -7z"/>
<path d="M1019 2839 c-19 -10 -53 -59 -42 -59 15 1 75 58 66 63 -5 3 -16 1
-24 -4z"/>
<path d="M2538 2821 c-9 -10 -12 -25 -8 -37 9 -24 2 -44 -16 -44 -28 0 -12
-28 27 -49 15 -7 32 -23 38 -35 10 -18 11 -17 6 13 -4 28 -3 32 10 21 23 -19
38 -2 20 23 -8 12 -15 29 -15 38 0 18 -27 76 -39 83 -4 3 -14 -3 -23 -13z"/>
<path d="M2600 2811 c0 -15 10 -23 40 -31 44 -12 53 -22 54 -62 1 -24 -3 -28
-26 -28 -24 0 -27 -4 -34 -46 -3 -25 -10 -41 -13 -35 -10 16 -51 2 -44 -16 3
-8 12 -12 19 -9 8 3 14 -1 14 -10 0 -10 8 -14 23 -12 15 2 21 -1 18 -12 -6
-24 -8 -46 -4 -32 3 6 8 12 12 12 12 0 51 -45 51 -58 0 -7 7 -12 16 -12 12 0
15 10 13 50 -2 27 0 53 4 56 4 4 7 0 7 -10 0 -11 6 -16 18 -14 12 2 17 13 17
35 0 36 15 56 36 48 20 -7 44 -48 32 -52 -6 -2 -19 -11 -29 -19 -18 -14 -18
-15 3 -5 29 15 53 14 53 -2 0 -7 11 -12 28 -12 33 1 64 14 57 25 -2 4 7 13 20
20 14 7 25 17 25 22 0 12 34 10 47 -3 8 -8 10 0 8 32 -3 24 -2 36 1 27 11 -37
42 -6 46 46 1 13 6 22 10 20 4 -3 8 0 8 6 0 7 7 10 15 7 8 -4 17 -2 20 3 4 6
15 10 26 10 10 0 19 7 19 15 0 7 8 19 18 24 22 13 -55 2 -81 -11 -11 -5 -44
-8 -75 -6 -50 3 -57 1 -54 -14 2 -10 -2 -18 -7 -18 -6 0 -19 -21 -31 -46 -24
-56 -25 -60 -5 -44 32 26 7 -24 -36 -72 -24 -27 -26 -27 -42 -11 -25 25 -64
83 -82 118 -9 19 -14 24 -15 13 0 -12 -8 -18 -22 -18 -19 0 -20 -2 -8 -10 8
-5 10 -10 5 -10 -13 0 -45 36 -45 50 0 15 21 12 42 -7 17 -15 18 -15 18 5 0
12 -4 22 -10 22 -5 0 -10 7 -10 15 0 8 -9 15 -20 15 -27 0 -70 21 -64 31 3 5
-8 9 -25 9 -16 0 -37 7 -45 16 -15 14 -16 14 -16 -5z"/>
<path d="M895 2810 c3 -5 8 -10 11 -10 2 0 4 5 4 10 0 6 -5 10 -11 10 -5 0 -7
-4 -4 -10z"/>
<path d="M1454 2793 c-17 -16 -23 -23 -15 -17 9 6 30 19 46 27 17 9 23 16 15
17 -9 0 -29 -12 -46 -27z"/>
<path d="M2817 2813 c-4 -3 -7 -11 -7 -17 0 -6 5 -5 12 2 6 6 9 14 7 17 -3 3
-9 2 -12 -2z"/>
<path d="M127 2803 c-10 -9 -9 -23 2 -23 5 0 11 7 15 15 5 15 -5 20 -17 8z"/>
<path d="M930 2800 c0 -5 5 -10 10 -10 6 0 10 5 10 10 0 6 -4 10 -10 10 -5 0
-10 -4 -10 -10z"/>
<path d="M2717 2803 c-3 -5 6 -9 20 -10 19 -1 22 1 12 8 -17 11 -26 11 -32 2z"/>
<path d="M2860 2799 c0 -5 -9 -18 -20 -29 -21 -21 -27 -60 -10 -60 6 0 10 4
10 9 0 6 14 25 30 43 35 38 36 43 10 45 -11 1 -20 -2 -20 -8z"/>
<path d="M542 2769 c1 -31 1 -31 14 -8 17 31 17 39 0 39 -10 0 -14 -10 -14
-31z"/>
<path d="M305 2769 c-4 -12 -2 -26 4 -32 8 -8 11 -2 11 21 0 37 -6 41 -15 11z"/>
<path d="M765 2770 c-16 -4 -68 -24 -115 -44 -46 -20 -91 -36 -100 -36 -13 0
-13 -1 0 -10 13 -9 13 -10 0 -11 -8 -1 -21 -1 -27 0 -7 1 -13 -8 -13 -19 0
-13 -8 -24 -20 -27 -11 -3 -20 -9 -20 -14 0 -5 -7 -9 -15 -9 -8 0 -15 -4 -15
-10 0 -5 -7 -10 -16 -10 -9 0 -27 -9 -41 -20 -14 -11 -31 -20 -38 -20 -28 0
-24 -30 5 -45 38 -20 48 -19 93 5 21 11 43 17 49 14 7 -4 8 -3 4 4 -4 7 -2 12
3 12 6 0 11 5 11 10 0 6 9 20 20 32 11 12 20 28 20 35 0 8 4 12 9 8 5 -3 13
-1 16 5 4 6 15 8 26 5 11 -4 19 -2 19 4 0 6 8 11 17 11 24 0 87 23 95 35 5 6
8 5 8 -3 0 -13 39 -7 50 7 8 12 54 41 63 41 4 0 5 -4 2 -10 -3 -5 0 -10 8 -10
14 0 57 52 57 70 0 12 -110 12 -155 0z"/>
<path d="M2790 2761 c0 -6 4 -13 10 -16 6 -3 7 1 4 9 -7 18 -14 21 -14 7z"/>
<path d="M2901 2760 c-10 -5 -10 -8 1 -12 21 -8 72 -2 75 8 4 12 -59 15 -76 4z"/>
<path d="M1510 2727 c-14 -7 -27 -14 -30 -17 -3 -4 -20 -15 -37 -25 -39 -23
-26 -36 26 -28 41 6 67 25 74 54 7 25 -2 29 -33 16z"/>
<path d="M157 2723 c-4 -3 -7 -11 -7 -17 0 -6 5 -5 12 2 6 6 9 14 7 17 -3 3
-9 2 -12 -2z"/>
<path d="M915 2710 c-10 -11 -16 -22 -13 -25 3 -3 13 6 22 20 20 30 16 32 -9
5z"/>
<path d="M181 2679 c-14 -42 -14 -41 9 -34 17 5 20 2 20 -24 0 -26 3 -29 28
-27 15 2 30 -2 34 -8 5 -7 8 -4 8 8 0 12 -5 16 -15 12 -9 -3 -15 0 -15 8 0 8
-6 16 -14 19 -7 3 -16 22 -20 41 -8 44 -21 46 -35 5z"/>
<path d="M1380 2690 c0 -5 4 -10 9 -10 6 0 13 5 16 10 3 6 -1 10 -9 10 -9 0
-16 -4 -16 -10z"/>
<path d="M1585 2680 c-3 -6 1 -7 9 -4 18 7 21 14 7 14 -6 0 -13 -4 -16 -10z"/>
<path d="M2860 2686 c0 -2 7 -7 16 -10 8 -3 12 -2 9 4 -6 10 -25 14 -25 6z"/>
<path d="M0 2664 c0 -17 22 -14 28 4 2 7 -3 12 -12 12 -9 0 -16 -7 -16 -16z"/>
<path d="M1530 2659 c0 -5 5 -7 10 -4 6 3 10 8 10 11 0 2 -4 4 -10 4 -5 0 -10
-5 -10 -11z"/>
<path d="M2561 2634 c0 -11 3 -14 6 -6 3 7 2 16 -1 19 -3 4 -6 -2 -5 -13z"/>
<path d="M1480 2634 c0 -7 -20 -17 -44 -23 -25 -6 -50 -17 -58 -23 -7 -7 -24
-14 -38 -16 -14 -1 -33 -12 -42 -23 -10 -12 -18 -16 -18 -9 0 6 13 25 29 41
16 16 26 31 21 34 -12 8 -70 -16 -70 -29 0 -6 -10 -22 -23 -36 -12 -14 -33
-42 -46 -63 -36 -58 -36 -37 0 24 30 52 30 53 5 30 -14 -13 -28 -32 -32 -43
-3 -10 -12 -18 -20 -18 -8 0 -14 -6 -14 -14 0 -7 -7 -27 -15 -42 -16 -31 -19
-54 -7 -54 16 0 29 16 36 43 3 15 12 27 20 27 7 0 19 7 26 15 7 8 30 20 51 27
22 6 39 15 39 21 0 5 9 7 21 4 11 -3 32 -2 47 3 15 4 45 13 67 20 48 15 91 71
75 98 -5 9 -10 12 -10 6z"/>
<path d="M2515 2620 c-3 -5 -1 -10 4 -10 6 0 11 5 11 10 0 6 -2 10 -4 10 -3 0
-8 -4 -11 -10z"/>
<path d="M1225 2590 c-3 -5 -1 -10 4 -10 6 0 11 5 11 10 0 6 -2 10 -4 10 -3 0
-8 -4 -11 -10z"/>
<path d="M6 2573 c-3 -3 -6 -19 -6 -35 l0 -28 134 0 c78 0 137 4 141 10 3 6
-1 7 -9 4 -9 -3 -16 -1 -16 6 0 14 -25 40 -39 40 -6 0 -11 -6 -11 -12 0 -10
-2 -10 -8 0 -9 13 -174 27 -186 15z"/>
<path d="M1110 2569 c0 -5 5 -7 10 -4 6 3 10 8 10 11 0 2 -4 4 -10 4 -5 0 -10
-5 -10 -11z"/>
<path d="M3060 2572 c0 -5 -34 -20 -75 -33 -41 -13 -69 -26 -63 -30 6 -4 8
-11 4 -17 -9 -15 70 -13 113 4 l36 13 -52 -6 c-33 -3 -53 -2 -53 5 0 11 64 27
93 24 19 -2 25 32 7 43 -5 3 -10 2 -10 -3z"/>
<path d="M3220 2505 c0 -8 -12 -18 -26 -21 -16 -4 -21 -9 -14 -14 12 -8 -64
-80 -85 -80 -8 0 -15 -5 -17 -12 -3 -7 -30 -13 -69 -15 -35 -2 -69 -5 -76 -7
-15 -6 -23 20 -19 57 3 27 2 27 -18 12 -11 -9 -33 -23 -48 -33 -33 -20 -35
-28 -9 -37 11 -3 34 -22 51 -41 16 -19 35 -32 41 -29 5 4 15 2 22 -3 14 -12
118 -12 111 0 -3 4 6 8 20 8 14 0 26 6 26 13 0 6 18 32 40 57 22 25 51 58 65
74 25 28 35 86 15 86 -5 0 -10 -7 -10 -15z"/>
<path d="M836 2363 c-4 -9 -2 -21 4 -27 7 -7 10 -7 10 1 0 6 3 18 6 27 3 9 2
16 -4 16 -5 0 -13 -8 -16 -17z"/>
<path d="M230 2330 c-24 -22 -40 -43 -36 -47 5 -5 11 -2 13 5 8 21 23 13 23
-12 0 -13 -7 -29 -15 -36 -23 -19 -48 -78 -42 -100 3 -11 1 -20 -4 -20 -5 0
-9 6 -9 13 0 6 -7 21 -16 32 -11 15 -17 17 -23 7 -6 -10 -13 -11 -34 -1 -15 7
-27 16 -27 21 0 5 -4 7 -8 4 -4 -2 -7 -17 -6 -33 1 -15 3 -49 3 -74 1 -25 8
-54 17 -65 15 -19 16 -19 9 1 -3 11 -8 49 -10 85 -3 36 -2 57 1 48 5 -18 20
-22 58 -18 11 1 15 -3 12 -9 -4 -6 -2 -11 3 -11 6 0 11 -13 11 -29 0 -29 15
-49 28 -36 3 3 1 9 -6 14 -9 5 -7 13 8 29 18 19 23 20 52 8 18 -8 34 -19 36
-25 8 -23 19 -10 14 15 -3 19 -1 25 7 20 7 -5 11 1 12 16 1 42 6 84 14 107 6
19 4 22 -12 19 -10 -2 -17 -10 -15 -16 1 -9 -3 -9 -18 0 -11 7 -15 15 -9 17 6
2 20 12 31 23 16 16 18 22 7 29 -11 6 -11 11 -2 20 9 9 9 15 -2 25 -18 18 -15
20 -65 -26z m40 -21 c0 -4 -7 -6 -15 -3 -8 4 -15 10 -15 15 0 4 7 6 15 3 8 -4
15 -10 15 -15z m-51 -151 c0 -33 -2 -38 -9 -23 l-9 20 -1 -20 c-1 -11 -4 -14
-7 -7 -4 10 17 72 24 72 2 0 3 -19 2 -42z m61 -10 c0 -5 -4 -6 -10 -3 -5 3
-10 -1 -10 -9 0 -8 -4 -17 -9 -20 -5 -3 -8 5 -8 19 0 15 4 22 10 18 7 -4 8 0
3 12 -5 15 -4 16 9 5 8 -7 15 -17 15 -22z"/>
<path d="M2855 2240 c-3 -5 -1 -10 4 -10 6 0 11 5 11 10 0 6 -2 10 -4 10 -3 0
-8 -4 -11 -10z"/>
<path d="M900 2180 c0 -7 -7 -10 -15 -6 -10 3 -15 1 -13 -7 1 -6 -3 -22 -10
-34 -11 -19 -9 -24 7 -33 11 -5 36 -10 55 -10 20 0 36 -4 36 -10 0 -5 -7 -10
-15 -10 -8 0 -15 -5 -15 -11 0 -6 7 -8 16 -5 11 4 15 2 11 -7 -3 -8 3 -13 14
-14 10 -1 19 2 19 6 0 5 10 12 23 16 20 7 19 8 -10 12 -25 3 -34 10 -39 29 -3
13 -10 24 -14 24 -16 0 -18 40 -2 50 16 9 16 9 0 10 -9 0 -23 3 -32 6 -9 4
-16 1 -16 -6z"/>
<path d="M3056 2164 c-8 -21 -8 -24 3 -24 5 0 11 9 14 20 6 24 -8 27 -17 4z"/>
<path d="M2791 2149 c-7 -12 -10 -23 -8 -26 3 -3 11 5 17 17 15 28 8 35 -9 9z"/>
<path d="M957 2148 c6 -12 51 -10 58 2 4 6 -7 9 -28 8 -19 -2 -33 -6 -30 -10z"/>
<path d="M2793 2107 c-3 -5 -12 -6 -20 -3 -11 5 -13 2 -8 -11 19 -47 17 -51
-27 -70 -23 -11 -56 -23 -71 -27 -20 -5 -27 -12 -23 -21 3 -8 1 -15 -5 -15 -6
0 -8 -4 -5 -9 3 -5 -11 -17 -31 -26 -36 -17 -72 -45 -58 -45 3 0 -3 -13 -14
-29 -12 -16 -21 -31 -21 -33 0 -3 -25 -31 -55 -62 -52 -53 -61 -76 -32 -76 7
0 21 14 31 31 10 17 21 27 25 21 4 -6 23 1 49 19 23 16 46 29 50 29 4 0 16 12
27 27 11 14 25 31 30 37 6 6 22 29 36 51 15 22 45 59 68 82 22 23 41 46 41 52
0 6 5 11 11 11 6 0 9 9 6 20 -3 11 -1 18 4 14 5 -3 9 -1 9 4 0 5 9 12 20 15
11 3 20 10 20 15 0 12 -50 11 -57 -1z"/>
<path d="M2376 2088 c8 -27 12 -33 19 -27 7 8 -7 49 -17 49 -5 0 -6 -10 -2
-22z"/>
<path d="M2956 2056 c-9 -19 -16 -38 -15 -43 3 -19 -2 -34 -10 -29 -5 3 -11
-3 -14 -14 -3 -12 -14 -20 -26 -20 -12 0 -24 -7 -27 -15 -4 -8 -12 -15 -20
-15 -8 0 -14 -6 -14 -14 0 -8 -15 -16 -37 -19 -47 -8 -121 -66 -101 -78 10 -7
10 -9 -2 -9 -9 0 -11 -3 -5 -8 6 -4 10 -18 10 -32 0 -14 5 -24 12 -23 6 1 16
-12 22 -29 6 -17 14 -28 18 -25 3 4 15 -3 25 -15 24 -28 8 -35 -26 -13 -14 9
-30 14 -36 10 -14 -9 -13 -42 2 -47 8 -3 4 -10 -10 -17 -30 -16 -37 -9 -22 19
9 17 8 25 -4 39 -9 10 -16 30 -16 44 0 15 -6 27 -12 27 -10 0 -10 2 -1 8 8 5
8 12 -3 26 -13 18 -14 15 -14 -30 1 -44 38 -200 39 -165 1 11 4 12 12 4 8 -8
6 -17 -7 -32 -25 -29 -36 -26 -28 5 5 19 4 25 -5 20 -14 -9 -15 -82 -1 -91 6
-3 10 -12 10 -18 0 -7 -4 -6 -10 3 -8 12 -10 9 -10 -13 0 -16 -4 -26 -10 -22
-15 9 -12 -58 4 -113 14 -49 35 -143 43 -199 3 -18 9 -30 14 -27 5 3 9 1 9 -5
0 -5 -5 -13 -10 -16 -7 -4 -7 -12 -2 -18 4 -7 7 -22 6 -34 -1 -18 2 -20 21
-13 22 8 35 4 35 -11 0 -4 -7 -10 -16 -13 -10 -4 -13 -2 -8 6 5 8 2 9 -12 3
-33 -14 -159 -1 -148 16 3 5 -4 9 -15 9 -28 0 -27 -18 1 -29 16 -6 18 -10 8
-16 -9 -5 -15 -4 -18 3 -7 22 -21 13 -24 -15 -3 -25 -7 -28 -35 -25 -18 2 -41
-2 -50 -8 -15 -9 -14 -10 10 -5 33 7 37 -16 8 -42 -42 -38 -54 -46 -77 -49
-28 -3 -44 -12 -44 -25 0 -6 -14 -30 -31 -55 -30 -44 -50 -56 -148 -90 -82
-29 -111 -34 -111 -18 0 8 5 14 11 14 18 0 5 89 -21 142 -11 23 -10 31 8 60
12 19 30 45 42 57 39 46 20 41 -24 -5 -27 -30 -53 -48 -70 -50 -21 -2 -25 0
-17 10 6 7 8 15 5 19 -10 9 -34 -4 -34 -19 0 -7 -6 -17 -13 -21 -8 -4 -16 -16
-20 -26 -4 -9 -19 -23 -34 -29 -15 -7 -35 -18 -44 -25 -15 -12 -203 -26 -213
-15 -2 2 -29 5 -60 7 -37 2 -66 11 -87 26 -22 16 -33 19 -38 10 -4 -6 -21 -13
-37 -14 -16 -1 -32 -6 -36 -11 -8 -12 -38 11 -38 30 0 8 -4 14 -10 14 -6 0 -5
-9 2 -25 13 -29 60 -49 78 -32 10 9 14 9 17 0 3 -7 11 -13 18 -13 8 0 19 -8
24 -18 6 -9 11 -13 11 -9 0 4 -8 19 -17 34 -14 21 -14 25 -3 21 8 -2 19 -19
25 -36 9 -32 30 -43 38 -19 2 6 8 8 13 4 5 -4 2 -12 -6 -17 -21 -13 23 -57 72
-72 21 -6 38 -15 38 -20 0 -4 29 -8 63 -8 50 0 69 4 88 21 13 11 25 25 25 30
1 5 2 14 3 19 2 19 20 10 34 -19 11 -21 12 -32 4 -40 -8 -8 -7 -11 5 -11 12 0
15 9 12 42 -3 32 -2 38 5 23 9 -20 10 -20 10 1 1 12 12 26 29 34 44 23 48 23
23 1 -16 -15 -21 -26 -16 -38 8 -17 8 -17 12 0 5 20 19 22 27 5 3 -7 3 -2 0
12 -5 20 -4 23 7 13 20 -19 28 -16 22 9 -4 18 -3 20 6 12 13 -12 5 -64 -9 -64
-12 0 -18 -47 -9 -62 6 -9 9 -4 9 15 0 15 3 27 8 27 4 0 5 -25 3 -56 -2 -35
-6 -52 -11 -44 -5 8 -8 -2 -8 -26 0 -53 -13 -137 -24 -150 -5 -7 -11 -34 -15
-62 -5 -49 -5 -50 19 -45 20 4 27 13 35 51 l10 47 3 -70 c5 -95 1 -133 -15
-172 -8 -19 -10 -31 -5 -28 6 3 10 2 10 -4 0 -5 -6 -14 -14 -18 -7 -4 -17 -18
-20 -30 l-7 -23 311 0 c303 0 312 1 317 20 3 11 9 20 14 20 5 0 6 7 3 15 -4 9
-14 14 -23 13 -10 -2 -17 5 -19 22 -2 14 -7 29 -12 33 -4 5 -5 18 -2 29 4 15
7 17 13 6 7 -10 9 -9 9 5 0 9 -6 17 -14 17 -8 0 -19 20 -26 48 -8 26 -20 56
-27 68 -7 12 -11 30 -7 40 4 14 3 16 -4 5 -8 -11 -12 -10 -21 8 -11 19 -9 21
19 21 18 0 33 -6 37 -16 3 -8 11 -13 18 -10 19 7 96 -15 89 -25 -3 -5 -10 -7
-15 -3 -13 8 -2 -42 19 -84 9 -17 22 -32 29 -32 6 0 15 -5 18 -10 4 -7 -3 -8
-22 -4 -26 7 -27 6 -10 -10 13 -14 26 -16 62 -11 40 6 43 9 34 26 -5 10 -20
19 -32 19 -48 0 -57 4 -57 25 0 13 -7 28 -15 35 -8 7 -15 18 -14 24 0 8 2 8 5
0 3 -6 17 -9 32 -7 19 3 23 2 13 -5 -11 -8 -10 -14 5 -36 22 -29 34 -33 34
-11 0 8 -4 15 -10 15 -5 0 -10 8 -10 17 0 14 4 12 17 -7 9 -14 20 -27 24 -30
16 -12 40 -74 36 -91 -3 -11 -1 -17 4 -13 5 3 9 -4 9 -15 0 -19 -6 -21 -55
-21 -36 0 -55 -4 -55 -12 0 -9 -3 -9 -11 -1 -13 13 -49 5 -49 -12 0 -19 27
-38 35 -25 9 14 42 13 47 -2 3 -7 11 -9 24 -3 27 12 48 12 56 0 5 -6 8 -4 9 5
0 8 7 2 14 -15 10 -21 14 -24 15 -11 0 12 5 16 15 12 8 -3 15 0 15 7 1 7 7 1
15 -13 8 -14 14 -19 15 -12 0 13 30 17 30 3 0 -4 28 -9 63 -9 l62 -1 -25 19
c-21 17 -23 21 -10 30 9 6 10 10 3 10 -18 0 -26 39 -13 55 7 8 21 15 31 15 26
0 24 15 -3 28 l-23 11 24 7 24 7 -24 18 c-13 10 -18 19 -11 19 17 0 15 20 -2
20 -9 0 -14 9 -13 20 1 12 8 20 19 20 10 0 18 5 18 10 0 6 7 10 15 10 10 0 15
11 15 35 0 19 -4 35 -9 35 -5 0 -8 -8 -6 -17 3 -24 -13 -43 -38 -43 -15 0 -18
3 -10 11 8 8 7 16 -5 30 -17 20 -38 27 -27 9 3 -6 -4 -10 -16 -10 -21 0 -21 1
-6 18 10 10 17 22 17 27 0 4 8 14 18 21 16 12 15 13 -8 14 -16 0 -20 3 -13 8
14 9 6 52 -9 52 -5 0 -6 -4 -3 -10 3 -5 -3 -10 -15 -10 -19 0 -20 1 -5 24 15
22 15 26 -2 45 -9 12 -24 21 -32 21 -8 0 -22 7 -32 16 -16 14 -22 14 -48 3
-29 -13 -47 -36 -36 -47 2 -3 11 1 20 8 12 10 15 10 15 -3 0 -11 5 -14 17 -10
10 4 14 2 10 -5 -4 -6 1 -13 10 -15 16 -4 16 -5 -1 -6 -12 -1 -16 -6 -12 -17
3 -8 2 -12 -4 -9 -21 13 -31 -7 -14 -26 18 -20 64 -26 64 -9 0 6 5 10 10 10
21 0 9 -28 -15 -34 -14 -4 -25 -11 -25 -17 0 -6 7 -9 15 -6 8 4 17 2 20 -3 4
-6 2 -10 -3 -10 -5 0 -13 -10 -17 -22 l-8 -23 -4 22 c-4 22 -23 33 -23 14 0
-22 13 -41 28 -41 12 0 13 -3 4 -12 -19 -19 -14 -29 8 -16 16 11 22 9 34 -7
12 -16 11 -23 -6 -54 -27 -48 -26 -48 -44 -23 -8 12 -20 22 -25 22 -6 0 -29
16 -52 35 -22 19 -46 35 -53 35 -7 0 -14 3 -16 8 -7 16 -101 84 -126 92 -15 4
-26 13 -24 19 1 8 -2 9 -10 4 -18 -11 -46 -5 -98 20 -57 28 -54 26 -47 33 4 4
13 1 22 -6 10 -8 15 -9 15 -1 0 6 10 11 22 11 12 0 18 3 15 7 -9 8 24 32 46
33 9 0 17 6 17 13 0 7 18 23 40 36 25 14 40 29 40 42 0 10 4 19 9 19 5 0 8 8
7 18 -1 11 5 16 16 14 12 -2 16 3 13 20 -2 13 0 39 4 58 7 26 9 29 10 12 1
-14 6 -22 14 -19 6 2 11 12 9 21 -2 10 4 24 14 30 11 8 15 21 12 34 -4 14 2
28 19 44 23 21 25 22 34 5 6 -9 17 -23 25 -30 9 -6 23 -20 32 -31 9 -10 23
-24 30 -31 6 -8 12 -17 12 -22 0 -9 61 -35 77 -32 24 4 43 -3 43 -16 0 -9 12
-18 30 -21 16 -4 27 -10 24 -15 -3 -5 2 -6 10 -3 10 4 26 -6 43 -25 22 -23 34
-29 52 -24 17 4 22 3 17 -5 -9 -16 7 -15 22 0 9 9 15 8 27 -8 9 -12 14 -14 15
-5 0 7 6 11 15 7 13 -5 15 23 15 209 0 178 -2 215 -14 215 -17 0 -15 32 2 38
8 2 12 47 12 148 0 136 -1 144 -19 144 -24 0 -37 -36 -21 -55 7 -8 9 -15 4
-15 -17 0 -31 15 -42 45 l-10 30 -1 -37 c-1 -20 4 -40 9 -43 6 -4 8 -11 4 -16
-3 -5 -10 -6 -16 -3 -6 4 -14 1 -18 -6 -4 -7 -6 6 -5 28 2 37 1 39 -17 29 -10
-7 -14 -13 -8 -15 13 -5 13 -49 0 -54 -6 -2 -12 -13 -13 -26 -2 -26 -10 -28
-31 -6 -9 8 -16 11 -16 5 0 -6 9 -16 19 -23 15 -9 17 -15 9 -25 -6 -8 -6 -13
-1 -13 11 0 33 44 33 65 0 8 5 15 10 15 6 0 10 -12 10 -26 0 -21 4 -24 20 -19
11 3 20 2 20 -3 0 -12 -29 -24 -41 -16 -9 5 -13 -16 -10 -43 1 -7 -8 -13 -21
-13 -18 0 -20 -2 -9 -9 23 -15 -3 -38 -52 -47 -23 -4 -36 -9 -29 -11 17 -7 15
-20 -4 -20 -9 0 -21 13 -26 29 -6 15 -14 28 -20 28 -5 0 -6 10 -3 21 6 19 4
21 -15 16 -16 -4 -20 -2 -16 9 4 12 2 12 -14 4 -11 -6 -20 -17 -20 -25 0 -8
-6 -15 -14 -15 -10 0 -12 7 -9 23 5 20 4 20 -8 6 -17 -21 -59 -35 -59 -20 0 6
-9 11 -20 11 -25 0 -27 35 -4 61 10 11 12 19 5 24 -6 3 -14 -1 -17 -9 -3 -9
-12 -16 -20 -16 -8 0 -14 -10 -14 -22 -1 -21 -2 -21 -11 -5 -8 13 -7 22 2 33
14 17 9 25 -19 27 -14 1 -22 10 -26 31 -3 16 -4 31 -1 34 3 3 5 0 5 -6 0 -9 5
-9 20 0 25 16 26 38 1 31 -10 -3 -22 1 -26 7 -5 9 -1 10 14 5 15 -5 21 -2 21
10 0 9 -6 15 -13 13 -7 -2 -15 2 -17 7 -3 6 6 12 19 13 22 3 23 7 18 48 -5 45
-4 45 14 25 11 -11 19 -28 19 -37 0 -13 3 -14 15 -4 8 6 18 9 23 6 5 -3 9 11
10 30 1 19 4 40 8 45 3 6 -3 13 -14 16 -11 3 -23 12 -26 20 -4 10 -14 13 -29
9 -12 -3 -29 -1 -37 4 -12 8 -10 10 10 10 19 0 21 3 12 12 -7 7 -12 17 -12 22
0 6 5 4 10 -4 8 -13 10 -12 10 3 0 9 7 17 15 17 9 0 18 7 22 16 3 8 17 20 30
25 13 5 21 13 18 19 -3 5 -2 10 4 10 13 0 91 81 91 94 0 5 8 18 17 29 10 10
27 37 38 60 14 27 28 41 43 42 17 1 19 -1 11 -12 -9 -10 -7 -13 9 -13 26 0 42
28 42 73 0 27 -5 36 -27 47 -21 10 -24 14 -12 17 9 2 21 15 28 29 16 35 14 42
-5 16 -19 -27 -38 -19 -30 14 4 14 2 24 -4 24 -5 0 -10 -4 -10 -10 0 -5 -5
-10 -11 -10 -6 0 -9 7 -5 15 11 30 -12 14 -28 -19z m-276 -558 c0 -7 -5 -20
-10 -28 -8 -11 -9 -9 -8 13 2 26 18 40 18 15z m65 -8 c-3 -5 -10 -10 -16 -10
-5 0 -9 5 -9 10 0 6 7 10 16 10 8 0 12 -4 9 -10z m-55 -90 c0 -5 -8 -10 -17
-10 -15 0 -16 2 -3 10 19 12 20 12 20 0z m-43 -72 c-3 -8 -6 -5 -6 6 -1 11 2
17 5 13 3 -3 4 -12 1 -19z m513 -92 c0 -11 -19 -15 -25 -6 -3 5 1 10 9 10 9 0
16 -2 16 -4z m40 -16 c0 -5 -7 -7 -15 -4 -8 4 -15 8 -15 10 0 2 7 4 15 4 8 0
15 -4 15 -10z m-460 -99 c0 -5 -7 -11 -14 -14 -10 -4 -13 -1 -9 9 6 15 23 19
23 5z m165 -1 c3 -5 1 -10 -4 -10 -6 0 -11 5 -11 10 0 6 2 10 4 10 3 0 8 -4
11 -10z m-55 -40 c13 -8 13 -10 -2 -10 -9 0 -20 5 -23 10 -8 13 5 13 25 0z
m118 -50 c15 0 15 -2 2 -10 -13 -9 -13 -11 0 -20 13 -9 13 -10 0 -10 -18 0
-38 40 -31 61 4 11 6 10 9 -3 2 -10 11 -18 20 -18z m-43 0 c3 -5 3 -15 -1 -21
-6 -11 -23 6 -24 24 0 10 18 9 25 -3z m127 -15 c0 -5 -5 -11 -11 -13 -6 -2
-11 4 -11 13 0 9 5 15 11 13 6 -2 11 -8 11 -13z m133 6 c3 -5 1 -12 -5 -16 -5
-3 -10 1 -10 9 0 18 6 21 15 7z m-423 -63 c-7 -7 -12 -8 -12 -2 0 14 12 26 19
19 2 -3 -1 -11 -7 -17z m188 12 c0 -5 -2 -10 -4 -10 -3 0 -8 5 -11 10 -3 6 -1
10 4 10 6 0 11 -4 11 -10z m160 -25 c0 -9 -6 -12 -15 -9 -8 4 -12 10 -9 15 8
14 24 10 24 -6z m-365 -6 c11 -16 1 -19 -13 -3 -7 8 -8 14 -3 14 5 0 13 -5 16
-11z m-191 -90 c17 14 19 11 10 -13 -3 -8 -12 -12 -20 -9 -8 3 -14 0 -14 -6 0
-6 -9 -11 -21 -11 -11 0 -27 -6 -34 -14 -11 -11 -7 -13 31 -10 52 4 57 -9 12
-32 -18 -9 -40 -23 -50 -31 -19 -17 -25 -10 -45 47 -17 47 -16 50 10 50 12 0
38 8 57 18 21 10 38 14 42 8 4 -6 13 -5 22 3z m-564 -99 c0 -5 -4 -10 -10 -10
-5 0 -10 5 -10 10 0 6 5 10 10 10 6 0 10 -4 10 -10z m1080 -10 c0 -5 -4 -10
-10 -10 -5 0 -10 5 -10 10 0 6 5 10 10 10 6 0 10 -4 10 -10z m75 -41 c0 -17
-33 -25 -47 -11 -6 6 -8 18 -5 26 8 19 52 6 52 -15z m-1390 -59 c-3 -5 -11
-10 -16 -10 -6 0 -7 5 -4 10 3 6 11 10 16 10 6 0 7 -4 4 -10z m653 -127 c-14
-17 -25 -16 -25 1 0 8 8 14 18 13 14 -1 15 -4 7 -14z m-70 -119 c14 -4 21 -12
18 -20 -5 -12 11 -19 36 -15 4 0 5 -5 2 -13 -3 -7 2 -19 11 -26 8 -7 15 -20
15 -29 0 -18 29 -101 30 -86 0 6 4 4 9 -4 5 -8 7 -25 5 -38 -3 -18 0 -23 16
-23 15 0 19 -4 13 -12 -15 -24 -14 -48 2 -42 22 9 18 -9 -4 -23 -18 -11 -22
-9 -36 20 -9 18 -28 66 -42 107 -34 99 -70 171 -97 192 -22 19 -16 22 22 12z
m-178 -40 c0 -6 -7 -11 -15 -11 -16 0 -18 7 -9 32 5 13 8 14 15 3 5 -7 9 -18
9 -24z m23 -126 c9 2 17 0 17 -3 0 -11 -72 -74 -91 -80 -10 -4 -19 -11 -19
-17 0 -6 -7 -5 -17 3 -13 11 -17 11 -21 1 -2 -7 -9 -18 -16 -25 -6 -6 -19 -24
-29 -39 -10 -16 -22 -28 -28 -28 -6 0 -3 7 5 16 16 16 12 39 -5 29 -5 -4 -9
-1 -9 4 0 6 6 11 14 11 8 0 19 15 25 33 9 25 14 29 21 17 5 -8 10 -10 10 -4 0
6 14 17 30 24 22 9 30 19 30 37 0 15 8 27 23 33 12 5 16 9 10 9 -14 1 -18 33
-5 45 4 4 8 12 8 17 4 25 7 19 18 -31 9 -43 16 -54 29 -52z m147 11 c0 -12
-43 6 -48 20 -3 9 2 9 22 0 14 -7 26 -16 26 -20z m-153 -1 c-3 -8 -6 -5 -6 6
-1 11 2 17 5 13 3 -3 4 -12 1 -19z m584 -38 c-1 -2 6 -7 16 -11 17 -7 17 -8 0
-8 -10 -1 -22 10 -27 25 -13 34 -12 44 2 19 7 -11 11 -22 9 -25z m-701 -5 c0
-8 -4 -15 -10 -15 -5 0 -10 7 -10 15 0 8 5 15 10 15 6 0 10 -7 10 -15z m740
-44 c13 -26 13 -32 -2 -28 -14 2 -37 27 -38 40 0 15 30 6 40 -12z m35 -27 c18
-43 18 -44 6 -44 -5 0 -11 10 -14 23 -2 12 -8 30 -12 40 -4 9 -4 17 -1 17 3 0
13 -16 21 -36z m-15 -24 c0 -5 -9 -10 -19 -10 -11 0 -23 5 -26 10 -4 6 5 10
19 10 14 0 26 -4 26 -10z m-410 -52 c0 -6 -6 -5 -15 2 -8 7 -15 14 -15 16 0 2
7 1 15 -2 8 -4 15 -11 15 -16z"/>
<path d="M236 2047 c-8 -28 35 -172 46 -155 5 9 8 6 8 -8 0 -27 -48 -49 -105
-46 l-40 1 40 -18 c54 -24 108 -41 120 -38 6 1 10 44 10 103 0 84 -2 100 -14
96 -11 -4 -13 -1 -8 12 6 14 3 17 -9 12 -10 -4 -14 -2 -11 6 2 7 12 12 21 12
9 -1 16 5 16 14 0 8 -3 13 -6 9 -4 -3 -19 0 -34 8 -26 13 -28 13 -34 -8z m54
-222 c-7 -9 -15 -13 -19 -10 -3 3 1 10 9 15 21 14 24 12 10 -5z"/>
<path d="M3071 2018 c-1 -10 -5 -18 -11 -18 -5 0 -10 -5 -10 -12 0 -8 6 -7 16
4 9 9 14 22 11 30 -4 9 -6 7 -6 -4z"/>
<path d="M180 1998 c0 -8 7 -21 15 -28 19 -16 19 -1 0 24 -12 16 -15 17 -15 4z"/>
<path d="M1445 2000 c-27 -4 -58 -10 -69 -15 -12 -5 -21 -3 -27 6 -7 12 -11
12 -24 -2 -15 -14 -12 -16 25 -17 23 -1 46 -4 50 -7 8 -5 47 -14 130 -30 14
-3 34 1 45 9 19 14 19 15 -5 35 -14 11 -31 18 -37 16 -7 -2 -13 0 -13 5 0 11
0 11 -75 0z"/>
<path d="M60 1989 c0 -5 5 -7 10 -4 6 3 10 8 10 11 0 2 -4 4 -10 4 -5 0 -10
-5 -10 -11z"/>
<path d="M3165 1940 c3 -5 8 -10 11 -10 2 0 4 5 4 10 0 6 -5 10 -11 10 -5 0
-7 -4 -4 -10z"/>
<path d="M930 1909 c0 -5 5 -7 10 -4 6 3 10 8 10 11 0 2 -4 4 -10 4 -5 0 -10
-5 -10 -11z"/>
<path d="M90 1901 c0 -21 13 -41 27 -41 8 0 11 5 8 10 -3 6 -1 10 5 10 7 0 5
6 -4 15 -16 17 -36 20 -36 6z"/>
<path d="M757 1903 c-13 -12 -7 -31 18 -62 l26 -30 -26 -25 c-14 -14 -25 -30
-25 -36 0 -29 54 10 63 45 3 14 5 11 6 -10 1 -24 3 -27 12 -15 9 12 10 11 6
-7 -4 -16 1 -24 14 -28 12 -4 19 -16 19 -31 0 -13 4 -24 10 -24 5 0 7 -6 4
-13 -2 -7 2 -21 10 -32 15 -20 15 -20 16 2 0 12 4 24 9 27 13 9 31 99 24 124
-3 12 -10 22 -15 22 -5 0 -7 -4 -4 -8 3 -5 -2 -9 -11 -9 -12 0 -9 6 10 23 14
12 23 25 19 29 -3 3 -1 10 6 14 10 6 7 12 -11 24 -24 16 -26 15 -49 -18 -25
-38 -43 -40 -93 -12 -21 11 -25 16 -12 17 15 0 15 3 5 20 -14 21 -21 24 -31
13z m103 -116 c0 -5 -4 -5 -10 -2 -5 3 -10 14 -10 23 0 15 2 15 10 2 5 -8 10
-19 10 -23z m40 -41 c0 -3 -4 -8 -10 -11 -5 -3 -10 -1 -10 4 0 6 5 11 10 11 6
0 10 -2 10 -4z"/>
<path d="M1470 1903 c14 -3 29 -9 35 -14 5 -5 14 -9 20 -9 5 0 1 7 -9 15 -11
8 -31 14 -45 14 l-26 -2 25 -4z"/>
<path d="M2371 1891 c-8 -14 -5 -23 10 -39 18 -20 20 -21 39 -5 25 21 25 32 3
49 -25 19 -41 17 -52 -5z"/>
<path d="M1287 1874 c-21 -14 -36 -28 -33 -31 3 -3 26 9 52 26 26 17 41 31 33
31 -8 0 -32 -12 -52 -26z"/>
<path d="M1368 1875 c-55 -19 -98 -39 -98 -47 0 -14 50 -21 64 -9 10 8 16 8
25 -2 6 -9 29 -14 54 -13 33 1 44 6 52 24 12 26 27 28 50 6 9 -9 19 -14 22
-11 7 8 -15 30 -47 47 -32 17 -80 19 -122 5z"/>
<path d="M850 1869 c0 -5 5 -7 10 -4 6 3 10 8 10 11 0 2 -4 4 -10 4 -5 0 -10
-5 -10 -11z"/>
<path d="M3067 1821 c-4 -17 -3 -21 5 -13 5 5 8 16 6 23 -3 8 -7 3 -11 -10z"/>
<path d="M3077 1788 c-36 -34 -55 -88 -31 -88 7 0 16 9 19 20 4 12 15 20 28
21 21 0 21 1 -3 10 l-25 10 33 15 c18 7 31 17 28 22 -3 5 9 6 26 4 21 -3 29
-1 24 7 -14 22 -64 12 -99 -21z"/>
<path d="M10 1790 c-8 -5 -12 -12 -9 -15 8 -8 39 5 39 16 0 11 -11 11 -30 -1z"/>
<path d="M2661 1784 c0 -11 3 -14 6 -6 3 7 2 16 -1 19 -3 4 -6 -2 -5 -13z"/>
<path d="M3225 1790 c3 -5 8 -10 11 -10 2 0 4 5 4 10 0 6 -5 10 -11 10 -5 0
-7 -4 -4 -10z"/>
<path d="M702 1768 c-6 -6 -12 -17 -12 -24 0 -6 -6 -17 -14 -24 -8 -6 -12 -18
-9 -26 8 -21 -6 -17 -28 9 -10 12 -18 17 -19 10 0 -6 -3 -18 -6 -26 -3 -9 0
-15 8 -14 33 1 48 -4 48 -17 0 -7 7 -19 15 -26 18 -15 9 -34 -12 -26 -9 4 -13
0 -12 -12 4 -21 -22 -62 -39 -62 -13 0 -7 -70 10 -102 6 -12 5 -18 -2 -18 -6
0 -9 -4 -6 -9 3 -4 -5 -17 -17 -29 -21 -20 -25 -22 -47 -22 -19 0 -10 -28 15
-44 32 -21 51 -20 75 4 11 11 27 20 35 20 8 0 15 6 15 13 0 9 2 9 9 -1 7 -11
10 -10 15 3 3 9 4 21 0 26 -3 5 5 9 17 9 12 0 19 3 16 7 -4 3 -24 6 -44 5 -21
-1 -45 3 -53 8 -13 9 -11 14 13 35 26 23 37 43 17 30 -5 -3 -10 -1 -10 5 0 6
10 8 24 4 13 -3 27 -1 30 4 3 6 15 8 26 5 18 -5 19 -2 11 18 -8 23 -15 26 -83
30 -23 2 -26 4 -16 17 8 9 14 10 16 3 5 -14 29 -14 37 -1 3 6 -1 7 -9 4 -12
-5 -16 1 -16 21 0 20 4 26 15 21 20 -7 19 -1 -2 24 -10 11 -17 24 -16 28 1 4
-4 13 -10 21 -10 12 -9 14 6 8 12 -5 17 -1 17 13 0 13 -5 18 -15 14 -8 -4 -15
-1 -15 5 0 6 4 11 10 11 12 0 32 38 28 51 -2 6 -8 5 -16 -3z"/>
<path d="M372 1745 c0 -16 2 -22 5 -12 2 9 2 23 0 30 -3 6 -5 -1 -5 -18z"/>
<path d="M455 1750 c-3 -5 -2 -10 4 -10 5 0 13 5 16 10 3 6 2 10 -4 10 -5 0
-13 -4 -16 -10z"/>
<path d="M3180 1745 c-10 -12 -10 -15 4 -15 9 0 16 7 16 15 0 8 -2 15 -4 15
-2 0 -9 -7 -16 -15z"/>
<path d="M3220 1750 c-13 -8 -12 -10 3 -10 9 0 17 5 17 10 0 12 -1 12 -20 0z"/>
<path d="M3137 1695 c-15 -14 -27 -34 -27 -45 0 -10 -4 -22 -10 -25 -5 -3 -10
-12 -10 -18 1 -18 30 24 30 43 0 12 10 17 35 18 37 1 50 -20 19 -32 -9 -4 -14
-13 -10 -21 3 -9 0 -15 -9 -15 -17 0 -20 -21 -5 -36 6 -6 5 -23 -2 -47 -8 -26
-14 -33 -20 -25 -5 8 -6 4 -4 -12 3 -14 5 -29 6 -35 0 -5 7 5 15 23 8 17 19
32 25 32 5 0 10 13 10 30 0 20 4 28 13 24 7 -2 21 2 32 10 20 14 19 15 -5 25
-24 9 -24 10 -2 10 19 1 22 6 22 44 0 28 -3 37 -9 28 -7 -10 -11 -8 -16 10
-14 45 -39 50 -78 14z"/>
<path d="M3080 1690 c0 -11 5 -20 10 -20 6 0 10 9 10 20 0 11 -4 20 -10 20 -5
0 -10 -9 -10 -20z"/>
<path d="M506 1663 c-4 -13 -12 -22 -18 -20 -6 1 -13 -5 -16 -13 -2 -8 -1 -12
3 -8 5 4 14 3 21 -3 19 -15 50 -3 36 14 -5 6 -12 21 -14 32 -4 19 -5 19 -12
-2z"/>
<path d="M3015 1669 c-4 -5 3 -9 14 -9 14 0 21 -6 21 -20 0 -11 5 -20 11 -20
6 0 8 7 5 16 -3 9 -6 21 -6 28 0 14 -37 19 -45 5z"/>
<path d="M424 1646 c-5 -6 -13 -19 -17 -29 -4 -10 -12 -15 -18 -11 -12 7 -29
-12 -29 -34 0 -10 5 -9 22 2 12 9 29 16 36 16 14 0 42 23 42 35 0 4 -6 12 -13
19 -9 9 -15 10 -23 2z"/>
<path d="M560 1650 c-13 -8 -13 -10 2 -10 9 0 20 5 23 10 8 13 -5 13 -25 0z"/>
<path d="M926 1644 c-8 -22 -7 -34 3 -34 5 0 9 11 9 25 0 29 -3 31 -12 9z"/>
<path d="M550 1613 c0 -13 5 -23 10 -23 6 0 10 -7 10 -16 0 -8 5 -12 10 -9 6
3 10 16 10 27 0 12 -3 18 -7 15 -3 -4 -12 1 -19 11 -12 16 -13 15 -14 -5z"/>
<path d="M2632 1610 c0 -14 2 -19 5 -12 2 6 2 18 0 25 -3 6 -5 1 -5 -13z"/>
<path d="M627 1604 c-3 -3 -3 -13 0 -21 5 -12 7 -12 14 -1 15 23 4 40 -14 22z"/>
<path d="M2485 1570 c-3 -5 -1 -10 4 -10 6 0 11 5 11 10 0 6 -2 10 -4 10 -3 0
-8 -4 -11 -10z"/>
<path d="M601 1554 c0 -11 3 -14 6 -6 3 7 2 16 -1 19 -3 4 -6 -2 -5 -13z"/>
<path d="M1494 1549 c-3 -6 -1 -16 5 -22 8 -8 11 -5 11 11 0 24 -5 28 -16 11z"/>
<path d="M2300 1540 c4 -41 1 -45 -16 -24 -15 18 -15 18 -9 -8 5 -27 -9 -40
-17 -16 -3 7 -7 5 -11 -5 -5 -13 0 -21 17 -29 l24 -10 -21 -22 c-16 -15 -21
-30 -19 -55 2 -21 0 -31 -7 -26 -7 4 -11 -5 -12 -22 -1 -15 -3 -37 -5 -48 -1
-11 -5 -35 -8 -53 -3 -18 -8 -37 -11 -42 -3 -5 -3 -27 1 -48 6 -39 7 -39 25
-21 10 10 19 23 19 29 0 5 10 12 23 15 27 7 61 59 53 81 -3 8 -2 12 4 9 5 -3
16 8 24 24 16 31 13 77 -8 116 -5 11 -9 26 -8 33 4 17 -15 15 -22 -3 -3 -8
-13 -15 -23 -15 -15 0 -15 3 5 18 14 11 21 24 17 34 -7 18 10 34 20 18 9 -15
25 -2 18 15 -3 8 -12 15 -20 15 -10 0 -14 7 -10 20 3 10 -2 25 -10 32 -13 10
-15 8 -13 -12z m10 -175 c0 -14 -7 -28 -15 -32 -21 -8 -24 -3 -18 30 7 34 33
36 33 2z m10 -65 c0 -5 -4 -10 -10 -10 -5 0 -10 5 -10 10 0 6 5 10 10 10 6 0
10 -4 10 -10z m-85 -150 c3 -5 1 -10 -4 -10 -6 0 -11 5 -11 10 0 6 2 10 4 10
3 0 8 -4 11 -10z"/>
<path d="M3125 1541 c-3 -5 -1 -12 5 -16 5 -3 10 1 10 9 0 18 -6 21 -15 7z"/>
<path d="M1937 1523 c-13 -12 -7 -43 8 -43 8 0 15 6 15 13 0 18 -15 38 -23 30z"/>
<path d="M2811 1499 c13 -10 31 -19 39 -19 12 0 13 2 1 9 -7 5 -11 13 -8 17 3
5 -9 10 -25 10 l-31 1 24 -18z"/>
<path d="M2877 1513 c-4 -3 -7 -11 -7 -17 0 -6 5 -5 12 2 6 6 9 14 7 17 -3 3
-9 2 -12 -2z"/>
<path d="M521 1494 c0 -11 3 -14 6 -6 3 7 2 16 -1 19 -3 4 -6 -2 -5 -13z"/>
<path d="M3045 1490 c-3 -6 1 -7 9 -4 18 7 21 14 7 14 -6 0 -13 -4 -16 -10z"/>
<path d="M581 1454 c0 -11 3 -14 6 -6 3 7 2 16 -1 19 -3 4 -6 -2 -5 -13z"/>
<path d="M1570 1460 c0 -5 5 -11 10 -11 21 -3 26 -5 68 -29 23 -13 42 -30 42
-37 0 -21 27 -27 60 -13 22 9 34 9 43 2 16 -13 54 -10 86 7 19 10 21 15 10 22
-8 5 -9 9 -3 9 7 0 14 9 17 20 5 18 0 20 -39 20 -26 0 -44 5 -44 11 0 7 -12 0
-27 -15 -30 -30 -64 -29 -130 5 -40 20 -93 25 -93 9z"/>
<path d="M2850 1460 c0 -5 5 -10 11 -10 5 0 7 5 4 10 -3 6 -8 10 -11 10 -2 0
-4 -4 -4 -10z"/>
<path d="M3182 1408 c-15 -15 -16 -28 -2 -28 6 0 9 3 9 8 -3 19 2 25 11 12 8
-13 10 -12 10 3 0 20 -11 22 -28 5z"/>
<path d="M580 1396 c0 -9 5 -16 10 -16 6 0 10 4 10 9 0 6 -4 13 -10 16 -5 3
-10 -1 -10 -9z"/>
<path d="M2360 1400 c0 -5 5 -10 10 -10 6 0 10 5 10 10 0 6 -4 10 -10 10 -5 0
-10 -4 -10 -10z"/>
<path d="M2800 1392 c0 -10 9 -27 20 -37 19 -18 20 -17 20 3 0 13 -6 22 -16
22 -8 0 -13 4 -9 9 3 5 1 12 -5 16 -5 3 -10 -2 -10 -13z"/>
<path d="M795 1392 c-13 -9 -16 -42 -4 -42 5 0 9 4 9 9 0 5 9 7 21 4 19 -5 20
-4 8 16 -15 23 -19 24 -34 13z"/>
<path d="M2485 1390 c3 -5 8 -10 11 -10 2 0 4 5 4 10 0 6 -5 10 -11 10 -5 0
-7 -4 -4 -10z"/>
<path d="M2530 1380 c0 -19 3 -21 12 -12 9 9 9 15 0 24 -9 9 -12 7 -12 -12z"/>
<path d="M2890 1354 c0 -8 5 -12 10 -9 6 3 10 10 10 16 0 5 -4 9 -10 9 -5 0
-10 -7 -10 -16z"/>
<path d="M864 1349 c-3 -5 2 -16 10 -25 19 -19 20 -26 4 -42 -9 -9 -9 -12 1
-12 7 0 10 -4 6 -9 -3 -5 1 -27 9 -48 8 -21 17 -47 19 -58 3 -16 1 163 -2 186
-2 11 -41 18 -47 8z"/>
<path d="M2717 1353 c-4 -3 -7 -11 -7 -17 0 -6 5 -5 12 2 6 6 9 14 7 17 -3 3
-9 2 -12 -2z"/>
<path d="M730 1340 c0 -5 7 -10 15 -10 8 0 15 5 15 10 0 6 -7 10 -15 10 -8 0
-15 -4 -15 -10z"/>
<path d="M2926 1335 c-3 -8 -1 -15 4 -15 6 0 10 7 10 15 0 8 -2 15 -4 15 -2 0
-6 -7 -10 -15z"/>
<path d="M2536 1332 c-3 -5 1 -15 9 -22 16 -14 20 -3 6 19 -5 8 -11 9 -15 3z"/>
<path d="M2890 1311 c0 -25 6 -27 13 -6 4 8 2 17 -3 20 -6 4 -10 -3 -10 -14z"/>
<path d="M2835 1310 c3 -5 8 -10 11 -10 2 0 4 5 4 10 0 6 -5 10 -11 10 -5 0
-7 -4 -4 -10z"/>
<path d="M2727 1303 c-15 -14 -5 -28 21 -29 15 -1 21 1 15 3 -7 3 -13 11 -13
19 0 15 -12 19 -23 7z"/>
<path d="M1923 1287 c4 -10 -27 -12 -143 -12 -167 0 -181 -17 -17 -21 54 -1
101 -4 104 -7 2 -3 2 -14 -1 -24 -5 -15 -17 -20 -57 -22 -56 -2 -110 -18 -74
-22 11 -1 26 -1 33 0 6 1 12 -3 12 -9 0 -5 8 -10 18 -10 14 0 15 2 2 10 -17
11 -10 13 14 4 9 -3 13 -10 10 -15 -18 -29 56 11 98 53 10 10 22 18 26 18 5 0
19 9 32 20 20 17 21 21 7 35 -19 19 -71 21 -64 2z"/>
<path d="M2485 1290 c-3 -5 -1 -10 4 -10 6 0 11 5 11 10 0 6 -2 10 -4 10 -3 0
-8 -4 -11 -10z"/>
<path d="M1394 1278 c-6 -10 41 -58 57 -58 8 0 19 52 12 62 -7 12 -61 9 -69
-4z"/>
<path d="M1485 1281 c-7 -12 10 -23 19 -14 12 12 96 14 96 3 0 -6 5 -8 11 -4
20 12 -13 24 -68 24 -28 0 -54 -4 -58 -9z"/>
<path d="M2993 1243 c9 -2 23 -2 30 0 6 3 -1 5 -18 5 -16 0 -22 -2 -12 -5z"/>
<path d="M2790 1214 c0 -7 5 -16 10 -19 6 -3 10 -2 10 3 0 6 10 5 25 -1 14 -7
23 -16 21 -22 -2 -5 7 -10 19 -10 13 0 22 2 20 4 -3 2 0 12 6 23 9 17 8 18
-10 6 -17 -10 -23 -10 -33 4 -17 21 -68 30 -68 12z"/>
<path d="M2880 1220 c-9 -6 -10 -10 -3 -10 6 0 15 5 18 10 8 12 4 12 -15 0z"/>
<path d="M2953 1215 c-8 -9 -9 -16 -3 -20 16 -10 12 -25 -5 -19 -8 4 -15 1
-15 -7 0 -7 3 -9 7 -6 3 4 13 1 21 -6 13 -10 14 -9 8 1 -6 9 -3 12 10 10 11
-2 20 4 22 15 3 15 0 18 -17 12 -12 -4 -21 -2 -21 4 0 6 5 11 10 11 6 0 10 5
10 10 0 14 -13 12 -27 -5z"/>
<path d="M1480 1211 c0 -11 26 -17 105 -26 54 -6 58 -6 41 7 -10 8 -29 13 -41
10 -13 -2 -26 1 -29 7 -5 8 -13 8 -26 1 -13 -7 -21 -7 -25 0 -8 12 -25 13 -25
1z"/>
<path d="M810 1193 c0 -13 0 -26 -1 -30 0 -4 5 -9 13 -11 10 -3 10 -2 -1 6
-10 8 -11 10 -1 14 10 3 11 9 2 24 -11 18 -11 18 -12 -3z"/>
<path d="M2470 1170 c0 -5 5 -10 11 -10 5 0 7 5 4 10 -3 6 -8 10 -11 10 -2 0
-4 -4 -4 -10z"/>
<path d="M2105 1162 c-15 -11 -55 -70 -55 -82 0 -16 35 23 53 59 8 17 15 31
14 31 -1 0 -6 -4 -12 -8z"/>
<path d="M2270 1138 c0 -6 -7 -20 -17 -30 -9 -10 -11 -18 -5 -18 6 0 13 4 17
10 3 5 13 6 23 3 14 -6 15 -4 4 9 -10 13 -10 17 2 21 7 3 20 0 27 -6 11 -10
11 -9 0 6 -15 19 -51 23 -51 5z"/>
<path d="M3037 1110 c-3 -11 -1 -20 4 -20 5 0 9 9 9 20 0 11 -2 20 -4 20 -2 0
-6 -9 -9 -20z"/>
<path d="M822 1080 c-15 -24 -16 -57 -2 -65 6 -3 10 -15 10 -26 0 -23 13 -24
34 -3 15 15 13 62 -4 74 -4 3 -11 13 -16 22 -9 16 -10 16 -22 -2z"/>
<path d="M2147 1055 c-9 -19 -15 -35 -12 -35 7 0 37 61 33 66 -3 2 -12 -12
-21 -31z"/>
<path d="M2470 1050 c0 -6 5 -8 10 -5 6 4 18 1 27 -7 14 -11 16 -11 11 2 -5
18 -48 27 -48 10z"/>
<path d="M2020 1029 c0 -5 5 -7 10 -4 6 3 10 8 10 11 0 2 -4 4 -10 4 -5 0 -10
-5 -10 -11z"/>
<path d="M633 1015 c-16 -18 6 -38 27 -25 13 8 13 11 0 24 -12 12 -17 12 -27
1z"/>
<path d="M2470 1006 c0 -2 6 -9 13 -15 10 -8 14 -7 14 4 0 8 -6 15 -14 15 -7
0 -13 -2 -13 -4z"/>
<path d="M881 964 c0 -11 3 -14 6 -6 3 7 2 16 -1 19 -3 4 -6 -2 -5 -13z"/>
<path d="M105 950 c-3 -5 -1 -10 4 -10 6 0 11 5 11 10 0 6 -2 10 -4 10 -3 0
-8 -4 -11 -10z"/>
<path d="M665 940 c3 -5 8 -10 11 -10 2 0 4 5 4 10 0 6 -5 10 -11 10 -5 0 -7
-4 -4 -10z"/>
<path d="M623 915 c-20 -23 -16 -37 7 -23 11 7 20 18 20 25 0 17 -12 16 -27
-2z"/>
<path d="M900 880 c0 -5 -7 -10 -15 -10 -9 0 -24 -13 -33 -30 -9 -16 -22 -30
-29 -30 -31 0 -51 -100 -27 -137 8 -13 12 -23 9 -23 -4 0 1 -7 9 -16 9 -8 16
-23 16 -32 0 -12 -2 -14 -8 -4 -5 7 -22 10 -40 8 -20 -2 -33 2 -36 11 -9 23
-7 93 3 93 5 0 11 8 15 18 3 9 9 23 12 30 5 11 3 11 -15 0 -12 -7 -24 -28 -27
-46 -4 -21 -10 -29 -14 -22 -5 8 -10 2 -14 -14 -4 -15 -11 -24 -15 -21 -5 3
-12 -1 -14 -7 -3 -7 -6 3 -6 22 -1 20 6 46 15 59 15 21 15 24 -1 39 -13 13
-19 14 -22 4 -3 -7 -10 -18 -17 -25 -7 -7 -11 -17 -9 -24 3 -9 -25 -83 -44
-115 -2 -4 3 -5 11 -2 14 5 14 1 2 -40 -8 -25 -12 -46 -9 -46 3 0 1 -6 -5 -13
-6 -7 -16 -34 -22 -61 -9 -42 -8 -50 8 -65 15 -14 19 -26 13 -45 0 -3 -16 0
-33 5 -22 6 -62 6 -120 -2 -79 -11 -94 -16 -149 -56 l-60 -44 -24 25 c-13 14
-26 35 -30 46 -4 11 -10 18 -15 15 -5 -3 -11 -1 -15 5 -3 5 -1 10 4 10 6 0 11
5 11 11 0 6 -7 9 -15 5 -8 -3 -15 -1 -15 4 0 5 -29 38 -65 74 l-65 65 0 -250
0 -249 164 0 c91 0 167 4 171 9 3 5 0 21 -6 35 -13 29 1 56 30 56 9 0 40 18
70 40 l54 39 26 -39 c18 -28 31 -38 45 -36 15 2 20 9 18 23 -2 11 4 23 13 26
8 4 15 2 15 -2 0 -5 10 -7 22 -3 14 3 19 2 14 -6 -4 -7 -2 -12 3 -12 6 0 11 5
11 11 0 8 6 7 17 -2 10 -8 14 -9 10 -2 -4 6 -3 14 3 18 5 3 10 1 10 -4 0 -6 7
-11 15 -11 8 0 15 -4 15 -10 0 -5 6 -7 14 -4 14 5 30 -32 20 -48 -6 -10 -44
13 -44 28 0 6 -7 11 -15 11 -8 0 -15 -6 -15 -14 0 -7 -5 -13 -11 -13 -6 0 -9
7 -6 14 9 23 -19 8 -32 -17 l-11 -22 6 23 c6 26 5 27 -40 5 l-35 -16 20 -39
19 -38 186 0 c145 0 184 3 180 13 -3 6 -9 20 -12 30 -7 18 -24 24 -24 7 0 -6
-6 -5 -14 2 -8 7 -12 17 -9 22 3 4 -1 12 -8 17 -11 7 -11 11 -2 17 17 11 -22
76 -40 66 -9 -5 -9 -4 1 7 22 24 12 29 -55 27 -61 -3 -68 -1 -65 16 2 10 -1
15 -7 12 -5 -4 -12 -2 -16 3 -7 13 29 33 48 26 21 -8 67 12 67 30 0 8 4 15 10
15 15 0 24 70 10 83 -10 10 -11 6 -6 -16 4 -19 3 -26 -4 -22 -6 4 -10 -4 -10
-20 0 -17 -5 -25 -12 -23 -7 3 -23 -1 -36 -8 -14 -7 -31 -10 -38 -7 -8 3 -14
1 -14 -5 0 -13 -52 0 -57 14 -2 6 9 16 24 23 19 9 29 9 31 2 7 -20 60 32 77
75 16 43 16 46 -5 92 -12 26 -25 54 -30 64 -6 11 -4 20 7 30 12 9 15 10 9 0
-4 -7 -4 -22 -1 -33 6 -17 9 -19 16 -8 7 10 8 5 3 -12 -8 -38 8 -42 41 -12 24
23 29 24 39 12 6 -9 19 -18 29 -22 16 -6 17 -5 4 14 -17 24 -14 64 15 196 17
76 18 97 8 127 -11 33 -30 50 -30 26z m-183 -251 c-4 -29 -1 -46 9 -56 8 -8
14 -19 14 -24 0 -13 -37 22 -43 41 -2 8 -3 2 -1 -13 2 -17 0 -26 -6 -22 -6 3
-10 15 -10 26 0 10 -5 19 -10 19 -6 0 -8 -11 -4 -25 5 -20 3 -24 -10 -19 -9 3
-16 10 -16 15 0 17 23 58 31 53 4 -2 16 7 26 20 10 14 20 26 22 26 2 0 1 -19
-2 -41z m-84 16 c4 -8 2 -17 -3 -20 -6 -4 -10 3 -10 14 0 25 6 27 13 6z m175
-70 c-3 -3 -9 2 -12 12 -6 14 -5 15 5 6 7 -7 10 -15 7 -18z m-32 -192 c-10
-10 -19 5 -10 18 6 11 8 11 12 0 2 -7 1 -15 -2 -18z m-102 -132 c-4 -3 -9 0
-11 7 -3 6 -10 9 -15 6 -7 -4 -8 -2 -4 5 6 9 11 9 22 0 8 -6 12 -15 8 -18z
m-74 -65 c0 -2 -9 -6 -20 -9 -11 -3 -18 -1 -14 4 5 9 34 13 34 5z m191 -31 c3
2 5 -5 5 -15 0 -25 0 -25 -22 8 -13 19 -13 24 -2 15 8 -7 17 -11 19 -8z m-239
-27 c-11 -11 -32 -3 -32 12 0 4 9 6 21 3 13 -4 17 -9 11 -15z m288 -60 c0 -14
-19 1 -31 25 -12 22 -12 22 10 3 11 -11 21 -23 21 -28z m-52 -3 c-3 -3 -9 2
-12 12 -6 14 -5 15 5 6 7 -7 10 -15 7 -18z m87 14 c11 -17 -1 -21 -15 -4 -8 9
-8 15 -2 15 6 0 14 -5 17 -11z m-271 -7 c3 -5 -1 -9 -9 -9 -8 0 -12 4 -9 9 3
4 7 8 9 8 2 0 6 -4 9 -8z"/>
<path d="M670 865 c0 -8 2 -15 4 -15 2 0 6 7 10 15 3 8 1 15 -4 15 -6 0 -10
-7 -10 -15z"/>
<path d="M230 855 c-1 -5 -2 -14 -1 -19 1 -5 -5 -16 -14 -26 -10 -11 -12 -20
-6 -24 14 -9 33 30 28 57 -2 12 -5 18 -7 12z"/>
<path d="M670 819 c0 -5 5 -7 10 -4 6 3 10 8 10 11 0 2 -4 4 -10 4 -5 0 -10
-5 -10 -11z"/>
<path d="M590 809 c0 -5 5 -7 10 -4 6 3 10 8 10 11 0 2 -4 4 -10 4 -5 0 -10
-5 -10 -11z"/>
<path d="M1330 800 c0 -5 7 -10 16 -10 8 0 12 5 9 10 -3 6 -10 10 -16 10 -5 0
-9 -4 -9 -10z"/>
<path d="M372 773 c1 -10 -1 -23 -5 -30 -4 -7 1 -14 13 -18 22 -7 26 -20 10
-30 -5 -3 -10 -17 -10 -31 0 -13 5 -24 10 -24 6 0 10 -9 10 -19 0 -11 -4 -23
-10 -26 -16 -10 -12 -38 5 -31 10 4 15 -1 15 -14 0 -11 6 -20 13 -21 6 0 3 -4
-8 -9 -19 -8 -19 -9 3 -9 12 -1 22 -7 22 -15 0 -8 6 -17 13 -19 7 -4 2 -9 -12
-13 -23 -7 -23 -8 -6 -21 16 -11 16 -13 3 -13 -9 0 -25 8 -34 18 -17 16 -18
16 -11 -1 4 -10 7 -21 7 -23 0 -6 46 -5 65 2 13 5 14 8 3 15 -10 7 -10 9 0 9
6 0 12 7 12 15 0 9 9 15 25 15 14 0 24 5 22 11 -1 6 4 14 12 17 10 3 12 0 8
-12 -4 -10 -1 -16 7 -16 26 0 37 74 14 83 -10 4 -10 6 0 6 6 1 12 6 12 11 0
18 -20 11 -42 -15 -24 -28 -43 -33 -34 -10 3 8 1 15 -4 15 -6 0 -10 14 -10 31
0 16 -4 28 -9 25 -5 -3 -12 4 -16 17 l-8 22 -4 -22 c-6 -32 -19 -28 -27 7 -13
66 -38 140 -47 140 -6 0 -9 -8 -7 -17z m128 -263 c0 -5 -4 -10 -10 -10 -5 0
-10 5 -10 10 0 6 5 10 10 10 6 0 10 -4 10 -10z"/>
<path d="M411 764 c0 -11 3 -14 6 -6 3 7 2 16 -1 19 -3 4 -6 -2 -5 -13z"/>
<path d="M131 739 c-17 -16 -25 -18 -36 -9 -10 8 -15 8 -20 0 -4 -7 2 -14 13
-17 11 -3 23 -11 26 -19 3 -8 14 -14 25 -14 11 0 22 -4 26 -10 6 -10 44 20 39
31 -2 3 5 15 16 26 19 21 19 21 -3 27 -39 10 -63 6 -86 -15z m56 -5 c-3 -3
-12 -4 -19 -1 -8 3 -5 6 6 6 11 1 17 -2 13 -5z m-20 -20 c-3 -3 -12 -4 -19 -1
-8 3 -5 6 6 6 11 1 17 -2 13 -5z"/>
<path d="M235 722 c-18 -13 -17 -35 0 -28 9 3 19 6 21 6 2 0 4 7 4 15 0 16 -9
19 -25 7z"/>
<path d="M435 711 c-3 -5 -1 -12 5 -16 5 -3 10 1 10 9 0 18 -6 21 -15 7z"/>
<path d="M481 654 c0 -11 3 -14 6 -6 3 7 2 16 -1 19 -3 4 -6 -2 -5 -13z"/>
<path d="M2740 648 c-19 -5 -39 -14 -45 -20 -7 -8 -5 -9 8 -5 11 4 20 1 23 -8
4 -8 11 -15 16 -15 6 0 7 8 3 18 -5 14 -4 15 6 5 16 -16 33 -17 24 -3 -4 6 -1
17 5 25 14 17 9 17 -40 3z"/>
<path d="M545 641 c-3 -5 -1 -12 5 -16 5 -3 10 1 10 9 0 18 -6 21 -15 7z"/>
<path d="M1866 603 c-6 -14 -5 -15 5 -6 7 7 10 15 7 18 -3 3 -9 -2 -12 -12z"/>
<path d="M2850 591 c0 -12 39 -21 45 -11 3 4 -2 11 -11 14 -22 8 -34 7 -34 -3z"/>
<path d="M490 450 c0 -5 5 -10 10 -10 6 0 10 5 10 10 0 6 -4 10 -10 10 -5 0
-10 -4 -10 -10z"/>
<path d="M2590 439 c0 -5 5 -7 10 -4 6 3 10 8 10 11 0 2 -4 4 -10 4 -5 0 -10
-5 -10 -11z"/>
<path d="M2715 430 c3 -5 8 -10 11 -10 2 0 4 5 4 10 0 6 -5 10 -11 10 -5 0 -7
-4 -4 -10z"/>
<path d="M355 420 c3 -5 8 -10 11 -10 2 0 4 5 4 10 0 6 -5 10 -11 10 -5 0 -7
-4 -4 -10z"/>
<path d="M285 400 c-8 -14 9 -34 23 -29 7 3 6 11 -3 22 -9 13 -15 15 -20 7z"/>
<path d="M2950 391 c0 -6 4 -13 10 -16 6 -3 7 1 4 9 -7 18 -14 21 -14 7z"/>
<path d="M490 374 c0 -8 5 -12 10 -9 6 4 8 11 5 16 -9 14 -15 11 -15 -7z"/>
<path d="M520 369 c0 -5 5 -7 10 -4 6 3 10 8 10 11 0 2 -4 4 -10 4 -5 0 -10
-5 -10 -11z"/>
<path d="M415 360 c-7 -12 12 -12 40 0 18 8 17 9 -7 9 -15 1 -30 -3 -33 -9z"/>
<path d="M2767 348 c-16 -12 -15 -13 7 -14 17 -1 23 2 19 12 -6 17 -5 17 -26
2z"/>
<path d="M2534 312 c-8 -5 -6 -23 7 -62 10 -30 18 -65 18 -77 1 -25 8 -28 30
-14 12 8 11 16 -5 54 -12 30 -22 42 -27 34 -5 -7 -6 0 -2 16 3 17 2 26 -4 23
-5 -3 -7 3 -4 14 6 22 4 24 -13 12z"/>
<path d="M907 273 c7 -18 33 -49 33 -39 0 16 -21 56 -29 56 -6 0 -7 -8 -4 -17z"/>
<path d="M814 245 c-5 -13 -9 -14 -15 -4 -5 9 -13 10 -31 2 -22 -10 -22 -10 8
-15 34 -4 74 15 55 27 -6 3 -14 -1 -17 -10z"/>
<path d="M2500 253 c0 -4 5 -15 10 -23 8 -13 10 -13 10 2 0 9 -4 20 -10 23 -5
3 -10 3 -10 -2z"/>
<path d="M950 208 c0 -15 42 -78 53 -78 15 0 6 24 -23 57 -16 18 -30 28 -30
21z"/>
<path d="M1109 166 c-12 -14 -27 -23 -32 -19 -6 3 -7 1 -3 -6 4 -6 2 -18 -4
-26 -6 -8 -9 -19 -5 -25 3 -5 2 -10 -2 -10 -5 0 -14 9 -21 21 -7 12 -16 18
-19 15 -3 -3 0 -12 7 -21 7 -8 9 -15 4 -15 -5 0 -3 -4 5 -9 12 -8 12 -12 2
-25 -8 -9 -22 -16 -32 -16 -11 0 -19 -4 -19 -10 0 -14 22 -12 44 5 26 20 33
19 41 -5 3 -11 11 -20 16 -20 5 0 3 13 -5 29 -14 26 -14 32 1 62 10 19 18 41
20 49 1 8 10 20 19 27 10 7 15 16 12 19 -4 3 -17 -6 -29 -20z"/>
<path d="M1187 124 c-30 -27 -77 -97 -77 -114 0 -24 19 -7 44 40 15 28 40 62
54 75 15 14 22 25 17 25 -6 0 -23 -12 -38 -26z"/>
<path d="M2640 127 c0 -13 30 -18 68 -11 39 8 24 24 -23 24 -30 0 -45 -4 -45
-13z"/>
<path d="M730 101 c0 -5 5 -13 10 -16 6 -3 10 -2 10 4 0 5 -4 13 -10 16 -5 3
-10 2 -10 -4z"/>
<path d="M1257 95 c-14 -10 -17 -20 -12 -37 7 -22 6 -22 -7 -4 -14 18 -15 17
-41 -6 -41 -38 -35 -48 33 -48 45 0 62 4 70 17 11 17 11 17 6 0 -4 -14 1 -17
34 -17 31 0 40 4 45 21 7 21 -10 42 -29 36 -5 -2 -22 9 -36 25 -31 32 -37 33
-63 13z"/>
<path d="M380 81 c0 -6 4 -13 10 -16 6 -3 7 1 4 9 -7 18 -14 21 -14 7z"/>
<path d="M416 15 c4 -8 10 -15 15 -15 4 0 6 7 3 15 -4 8 -10 15 -15 15 -4 0
-6 -7 -3 -15z"/>
</g>
</svg>
